<svg xmlns="http://www.w3.org/2000/svg" viewBox="0 0 215.43 39.69"><defs><style>.cls-1{fill:#898989;}.cls-2{fill:#2f8063;}</style></defs><g id="レイヤー_2" data-name="レイヤー 2"><g id="レイヤー_2-2" data-name="レイヤー 2"><rect class="cls-1" x="113.39" y="9.92" width="17.01" height="2.84"/><path class="cls-1" d="M113.39,18.43h14.17a8.51,8.51,0,0,1-8.5,8.5v2.83a11.33,11.33,0,0,0,11.33-11.33V15.59h-17Z"/><path class="cls-1" d="M189.92,9.92v2.84a5.67,5.67,0,0,1-2.83,4.91v3.1a8.49,8.49,0,0,0,5.67-8h8.5v5.67a8.51,8.51,0,0,1-8.51,8.5v2.84a11.34,11.34,0,0,0,11.34-11.34V9.92H189.92Z"/><rect class="cls-1" x="208.35" y="9.92" width="1.42" height="2.84"/><rect class="cls-1" x="205.51" y="9.92" width="1.42" height="2.84"/><rect class="cls-1" x="133.23" y="18.43" width="14.17" height="2.83"/><rect class="cls-1" x="147.4" y="26.93" width="17.01" height="2.83"/><rect class="cls-1" x="148.82" y="9.92" width="14.17" height="2.84"/><rect class="cls-1" x="167.24" y="9.92" width="8.5" height="2.84"/><path class="cls-2" d="M62.36,9.92v2.84a5.67,5.67,0,0,1-2.83,4.91v3.1a8.49,8.49,0,0,0,5.67-8h8.5v5.67a8.51,8.51,0,0,1-8.5,8.5v2.84A11.34,11.34,0,0,0,76.54,18.43V9.92H62.36Z"/><rect class="cls-2" x="80.79" y="9.92" width="1.42" height="2.84"/><rect class="cls-2" x="77.95" y="9.92" width="1.42" height="2.84"/><rect class="cls-2" x="109.13" y="9.92" width="1.42" height="2.84"/><rect class="cls-2" x="106.3" y="9.92" width="1.42" height="2.84"/><path class="cls-2" d="M93.54,15.59H90.71v5.67A5.67,5.67,0,0,1,85,26.93v2.83a8.49,8.49,0,0,0,8.5-8.5Z"/><rect class="cls-2" x="85.04" y="15.59" width="2.83" height="5.67"/><rect class="cls-2" x="79.37" y="15.59" width="2.83" height="5.67"/><path class="cls-2" d="M104.88,18.43a8.47,8.47,0,0,1-5.67-2.17V9.92H96.38V29.76h2.83v-10a11.36,11.36,0,0,0,5.67,1.52h5.67V18.43Z"/><path class="cls-1" d="M181.42,18.43h0a8.51,8.51,0,0,1-8.51,8.5h-5.67v2.83h5.67a11.33,11.33,0,0,0,11.34-11.33V9.92h-2.83Z"/><rect class="cls-2" x="212.6" y="9.92" width="2.83" height="14.17"/><rect class="cls-2" x="212.6" y="26.93" width="2.83" height="2.83"/><path class="cls-1" d="M15.83,15.83a5.68,5.68,0,0,0-1.1,6.46L8.57,28.44a14.42,14.42,0,0,0,2.68,2.67L17.4,25a5.67,5.67,0,1,0-1.57-9.13"/><path class="cls-2" d="M38.49,26.63a19.85,19.85,0,1,0-3.34,5.84l-8.8-8.79a7.59,7.59,0,0,1-2.67,2.67l6.11,6.11a16.06,16.06,0,1,1,6.12-12.62,16.19,16.19,0,0,1-1,5.5Z"/></g></g></svg>