<svg xmlns="http://www.w3.org/2000/svg" viewBox="0 0 34.28 40.63"><defs><style>.cls-1{fill:#2f8063;}</style></defs><g id="レイヤー_2" data-name="レイヤー 2"><g id="レイヤー_1-2" data-name="レイヤー 1"><path class="cls-1" d="M8.13,21.58H7v2.47H8.13a1.24,1.24,0,0,0,0-2.47Z"/><path class="cls-1" d="M2.78,34.6H31.5v6H2.78Z"/><path class="cls-1" d="M31.5,9.52H22V0H2.78V14.28H31.5Z"/><path class="cls-1" d="M24.36,1.68V7.14h5.46Z"/><path class="cls-1" d="M16.51,21.58v6a2.39,2.39,0,0,0,2.38-2.38V24A2.39,2.39,0,0,0,16.51,21.58Z"/><path class="cls-1" d="M0,16.66V32.22H34.28V16.66Zm8.13,9.77H7V30H4.6V19.2H8.13a3.62,3.62,0,0,1,0,7.23Zm13.14-1.19A4.77,4.77,0,0,1,16.51,30H14.13V19.2h2.38A4.77,4.77,0,0,1,21.27,24Zm8.49-3.66H26.19v2.74h2.38V26.7H26.19V30H23.81V19.2h6Z"/></g></g></svg>