<svg xmlns="http://www.w3.org/2000/svg" viewBox="0 0 334.08 42.52"><defs><style>.cls-1{fill:#2f8063;}.cls-2{fill:#898989;}</style></defs><g id="レイヤー_2" data-name="レイヤー 2"><g id="レイヤー_1-2" data-name="レイヤー 1"><rect class="cls-1" x="106.3" width="3.04" height="6.07"/><rect class="cls-1" x="100.22" width="3.04" height="6.07"/><path class="cls-1" d="M109.33,18.22V24.3H97.18A24.14,24.14,0,0,1,85,21V42.52H79V0H85V13.58a18.17,18.17,0,0,0,12.14,4.64Z"/><rect class="cls-2" x="115.41" width="36.44" height="6.07"/><path class="cls-2" d="M151.85,12.15v6.07a24.3,24.3,0,0,1-24.3,24.3V36.44a18.22,18.22,0,0,0,18.23-18.22H115.41V12.15Z"/><path class="cls-1" d="M6.08,0V6.08h0A12.13,12.13,0,0,1,0,16.59v6.67A18.23,18.23,0,0,0,12.15,6.08H30.37V18.22h0A18.23,18.23,0,0,1,12.15,36.45v6.07a24.29,24.29,0,0,0,24.29-24.3h0V0H6.08Z"/><rect class="cls-1" x="45.56" width="3.04" height="6.07"/><rect class="cls-1" x="39.48" width="3.04" height="6.07"/><rect class="cls-2" x="318.89" width="3.04" height="6.07"/><rect class="cls-2" x="312.82" width="3.04" height="6.07"/><path class="cls-2" d="M309.78,0V18.22a24.3,24.3,0,0,1-24.3,24.3V36.44A18.22,18.22,0,0,0,303.7,18.22V6.07H285.48a18.24,18.24,0,0,1-12.15,17.19V16.59a12.14,12.14,0,0,0,6.08-10.52V0Z"/><rect class="cls-2" x="157.93" y="18.22" width="30.37" height="6.07"/><rect class="cls-2" x="188.3" y="36.44" width="36.44" height="6.07"/><rect class="cls-2" x="191.34" width="30.37" height="6.07"/><rect class="cls-2" x="230.82" width="18.22" height="6.07"/><path class="cls-2" d="M267.26,0V18.22A24.3,24.3,0,0,1,243,42.52H230.82V36.44H243a18.21,18.21,0,0,0,18.22-18.22V0Z"/><rect class="cls-1" x="328" width="6.07" height="30.37"/><rect class="cls-1" x="328" y="36.44" width="6.07" height="6.07"/><rect class="cls-1" x="54.67" y="12.15" width="6.07" height="12.15"/><rect class="cls-1" x="42.52" y="12.15" width="6.07" height="12.15"/><path class="cls-1" d="M72.89,12.15V24.3A18.23,18.23,0,0,1,54.66,42.52V36.44A12.14,12.14,0,0,0,66.81,24.3V12.15Z"/></g></g></svg>