<svg xmlns="http://www.w3.org/2000/svg" viewBox="0 0 42.5 42.5"><defs><style>.cls-1{fill:#2f8063;}</style></defs><g id="レイヤー_2" data-name="レイヤー 2"><g id="レイヤー_2-2" data-name="レイヤー 2"><path class="cls-1" d="M39.09,27.9a24.15,24.15,0,0,1-7.58-1.21,3.47,3.47,0,0,0-3.37.71L23.36,31A26.43,26.43,0,0,1,11.49,19.14L15,14.48A3.44,3.44,0,0,0,15.84,11a24,24,0,0,1-1.21-7.59A3.41,3.41,0,0,0,11.22,0H3.41A3.41,3.41,0,0,0,0,3.41,39.14,39.14,0,0,0,39.09,42.5a3.41,3.41,0,0,0,3.41-3.41V31.31A3.41,3.41,0,0,0,39.09,27.9Z"/></g></g></svg>