<svg xmlns="http://www.w3.org/2000/svg" viewBox="0 0 596.52 596.52"><defs><style>.cls-1{fill:#f6f6f6;}.cls-2{fill:#eef5f2;}</style></defs><g id="レイヤー_2" data-name="レイヤー 2"><g id="レイヤー_1-2" data-name="レイヤー 1"><path class="cls-1" d="M238,238a85.22,85.22,0,0,0-16.65,97l-92.49,92.5a214.32,214.32,0,0,0,40.18,40.16l92.47-92.46A85.22,85.22,0,1,0,238,238"/><path class="cls-2" d="M578.6,400.29a297.48,297.48,0,0,0,17.92-102C596.52,133.55,463,0,298.27,0S0,133.55,0,298.27,133.55,596.52,298.27,596.52a297.56,297.56,0,0,0,230-108.41L396.13,356A114.13,114.13,0,0,1,356,396.14l91.76,91.75A240.52,240.52,0,0,1,298.27,539.7C164.92,539.7,56.8,431.61,56.8,298.27S164.92,56.8,298.27,56.8,539.72,164.9,539.72,298.27a241.13,241.13,0,0,1-14.52,82.58Z"/></g></g></svg>