<svg xmlns="http://www.w3.org/2000/svg" viewBox="0 0 58.02 58.02"><defs><style>.cls-1{fill:#040000;}</style></defs><g id="レイヤー_2" data-name="レイヤー 2"><g id="レイヤー_1-2" data-name="レイヤー 1"><path class="cls-1" d="M49.52,8.49A29,29,0,1,0,58,29,29,29,0,0,0,49.52,8.49ZM43.93,40.41h0l-1.47,1.46A7.72,7.72,0,0,1,35.16,44a26,26,0,0,1-7.47-3.34A35.75,35.75,0,0,1,17.4,30.52a27.41,27.41,0,0,1-3.3-6.69A7.71,7.71,0,0,1,16,15.93l1.72-1.72a1.24,1.24,0,0,1,1.74,0h0l5.44,5.43a1.23,1.23,0,0,1,0,1.74h0l-3.19,3.19A2.6,2.6,0,0,0,21.47,28a37.64,37.64,0,0,0,3.82,4.46,37.52,37.52,0,0,0,5,4.22,2.62,2.62,0,0,0,3.35-.29l3.08-3.13a1.24,1.24,0,0,1,1.74,0h0l5.45,5.45A1.23,1.23,0,0,1,43.93,40.41Z"/></g></g></svg>