<svg xmlns="http://www.w3.org/2000/svg" viewBox="0 0 512 360"><defs><style>.cls-1{fill:#fff;}</style></defs><g id="レイヤー_2" data-name="レイヤー 2"><g id="レイヤー_1-2" data-name="レイヤー 1"><path class="cls-1" d="M467,0H45A45.07,45.07,0,0,0,0,45V315a45.06,45.06,0,0,0,45,45H467a45.05,45.05,0,0,0,45-45V45A45,45,0,0,0,467,0Zm-6.3,30L287.82,202a45,45,0,0,1-63.67,0L51.3,30ZM30,308.89V51.12l129.64,129ZM51.32,330,180.91,201.24,203,223.18a75,75,0,0,0,106,0l22.08-22L460.68,330ZM482,308.89,352.36,180.08,482,51.12Z"/></g></g></svg>