<svg xmlns="http://www.w3.org/2000/svg" viewBox="0 0 465.94 203.81"><defs><style>.cls-1{fill:#2a7c61;}.cls-2{fill:#fff;}.cls-3{fill:#898a89;}.cls-4{fill:#898989;}</style></defs><g id="レイヤー_2" data-name="レイヤー 2"><g id="レイヤー_1-2" data-name="レイヤー 1"><path class="cls-1" d="M76.86,22.45A14,14,0,0,1,73,25.09a9.89,9.89,0,0,1-4.1,1.06,5,5,0,0,1-4.81-2.89,16.92,16.92,0,0,1-1.28-7.43c0-2.51.13-5.07.38-7.7Q63.51,5,64.18.9h3.67q-.66,4-1,7.23a75.66,75.66,0,0,0-.41,7.67,11.18,11.18,0,0,0,.75,4.85,2.42,2.42,0,0,0,2.29,1.42,7.62,7.62,0,0,0,3.61-1.34,12.43,12.43,0,0,0,3.79-3.3Zm11.43.46H84.67a52.44,52.44,0,0,0-1.08-11.56,20.46,20.46,0,0,0-3.06-7.44h3.94a19.83,19.83,0,0,1,2.81,7.34A58,58,0,0,1,88.29,22.91Z"/><path class="cls-1" d="M116.48,13.79q0,6.36-3.5,9.3-3.21,2.72-9.65,2.71H96.42V22.13h6.94q4.85,0,7-1.9T112.63,14a7.91,7.91,0,0,0-1.86-5.71q-1.93-2-6-2A35.89,35.89,0,0,0,98.17,7a61.73,61.73,0,0,0-7.23,1.85V4.93q4-1.14,7.14-1.75a40.36,40.36,0,0,1,7.38-.76,10.92,10.92,0,0,1,8,2.89Q116.48,8.31,116.48,13.79Z"/><path class="cls-1" d="M142.28,26h-8.11q-6.52,0-9.88-3a8.41,8.41,0,0,1-2.77-6.47,11.27,11.27,0,0,1,2-6.24,12,12,0,0,1,5.86-4.78H118.84V2h19.39v3.5q-6.33.9-9.77,4.26a8.9,8.9,0,0,0-2.89,6.41,5.16,5.16,0,0,0,2,4.23q2.47,2,7.63,2h7.06Zm-.7-21.28h-2.1V0h2.1Zm3.47,0H143V0h2.07Z"/><path class="cls-1" d="M172.71,17.61c0,3-.8,5.15-2.42,6.53s-3.81,1.92-6.88,1.92h-4.16q-4.67,0-6.74-2.39a8.84,8.84,0,0,1-1.81-6l0-3.27h-3.58V11h3.61V6.09h-3.61V2.68h3.61V.55h3.65V2.68h16.32V6.09H154.35V11h16.32v3.44H154.32l0,3.06a5.52,5.52,0,0,0,1,3.67q1.2,1.35,4.17,1.35h4q5.57,0,5.57-5.11V16h3.67Z"/><path class="cls-1" d="M200.15,25.86H185.48q-5.5,0-8-2.1a7.32,7.32,0,0,1-2.36-5.92,8.41,8.41,0,0,1,1.57-5,11.4,11.4,0,0,1,4.93-3.62l-2-8.63h4.05l1.72,7.38.49-.12c1.64-.39,3-.68,4.06-.87,1.45-.27,2.93-.48,4.41-.63s3.06-.22,4.71-.22V9.56a52.68,52.68,0,0,0-12.45,1.63,13.58,13.58,0,0,0-5.76,2.58,5.19,5.19,0,0,0-1.85,4,3.84,3.84,0,0,0,1.62,3.43,9.39,9.39,0,0,0,5.15,1.09h14.46ZM198,4.78h-2.07V0H198Zm3.47,0h-2.1V0h2.1Z"/><path class="cls-1" d="M227.84,25.6H214.9c-4.1,0-7-.58-8.72-1.72a5.77,5.77,0,0,1-2.36-5.14,8.38,8.38,0,0,1,.61-3.1,7.36,7.36,0,0,1,1.9-2.75h4.14a9.6,9.6,0,0,0-2.07,2.59,5.59,5.59,0,0,0-.76,2.68,3,3,0,0,0,1.72,3,13.31,13.31,0,0,0,5.57.85h12.91ZM227,5.16l-3,3.29H219.5l2.74-2.68h-17V2.22H227Z"/><path class="cls-1" d="M253.93,26h-8.1q-6.54,0-9.88-3a8.38,8.38,0,0,1-2.77-6.47,11.27,11.27,0,0,1,2-6.24A12,12,0,0,1,241,5.48H230.49V2h19.39v3.5q-6.33.9-9.77,4.26a8.89,8.89,0,0,0-2.88,6.41,5.15,5.15,0,0,0,2,4.23q2.47,2,7.64,2h7.05Zm-.7-21.28h-2.1V0h2.1Zm3.47,0h-2.07V0h2.07Z"/><path class="cls-1" d="M284.37,17.61q0,4.45-2.42,6.53-2.28,1.92-6.88,1.92H270.9q-4.66,0-6.74-2.39a8.84,8.84,0,0,1-1.8-6l0-3.27h-3.59V11h3.62V6.09h-3.62V2.68h3.62V.55H266V2.68h16.33V6.09H266V11h16.33v3.44H266l0,3.06a5.52,5.52,0,0,0,1,3.67q1.2,1.35,4.17,1.35h4q5.56,0,5.56-5.11V16h3.68Z"/><path class="cls-1" d="M313.58.26v3l-2,.26-1.37,4.4h3.41v6.24H310.9v2.53a19.48,19.48,0,0,1-2.6,3.17,18.31,18.31,0,0,1-3.53,2.69,44.78,44.78,0,0,0,8.81.82v3.12a45.46,45.46,0,0,1-7-.5,33.42,33.42,0,0,1-6-1.48,35.52,35.52,0,0,1-6,1.46,46.12,46.12,0,0,1-7.17.52V23.29c1.73,0,3.32-.07,4.78-.2a41.17,41.17,0,0,0,4.2-.61,24.87,24.87,0,0,1-5.42-4.7h4.63a8.59,8.59,0,0,0,2.1,1.87,18,18,0,0,0,2.83,1.51,18.38,18.38,0,0,0,3.34-1.91,18.09,18.09,0,0,0,2.78-2.49H290.08V14.14H287.4V7.9h3.24a15.09,15.09,0,0,0-1.11-3.59H287.4V1.22q7.88,0,11.43,0t7.5-.26C309,.77,311.38.55,313.58.26ZM290.72,13.93h19.53V11H290.72Zm3.41-6h4.41a21.32,21.32,0,0,0-1.17-3.67l-4.32.06A22.07,22.07,0,0,1,294.13,7.9Zm7.93,0h4.38l1.25-4.08c-.49,0-1.82.07-4,.2-1.23.08-2.13.12-2.72.12A15,15,0,0,1,301.64,6,12.86,12.86,0,0,1,302.06,7.9Z"/><path class="cls-1" d="M326.64,4.78v3h-9.39V4.78ZM326.05.73V3.26h-8.27V.73Zm0,8.48v2.48h-8.27V9.21Zm0,4v2.51h-8.27V13.23Zm0,4v8.89h-8.27V17.23Zm-5.51,6.35h2.92V19.85h-2.92ZM333.11.26V1.37h4.46V.26h3.12V1.37h2.74v2.3h-2.74V5.22h2V7.49h-2V9h2.74v2.36h-6.56v1.28h5.86v7.61h.7v2.33h-.7v.94a3,3,0,0,1-.79,2.12,2.74,2.74,0,0,1-2.13.85h-3.93V23.9h2.91a.94.94,0,0,0,.65-.27.85.85,0,0,0,.29-.6v-.47H331v3.91h-3V22.56h-.73V20.23H328V12.62h5.83V11.34h-6.56V9H330V7.49H328V5.22H330V3.67h-2.68V1.37H330V.26ZM331,16.47h2.86V14.9H331Zm0,3.76h2.86V18.74H331Zm2.13-15h4.46V3.67h-4.46Zm0,3.76h4.46V7.49h-4.46Zm3.76,7.49h2.86V14.9h-2.86Zm0,3.76h2.86V18.74h-2.86Z"/><path class="cls-1" d="M373.28.73V4.08h-1.46V22.56a3.72,3.72,0,0,1-1.15,2.77,3.91,3.91,0,0,1-2.87,1.14h-5.66V23.09h5.19a1,1,0,0,0,.72-.28,1,1,0,0,0,.28-.71v-18H347.1V.73ZM365.53,7.9V21.14h-17V7.9Zm-13.44,10h9.85V11.11h-9.85Z"/><path class="cls-1" d="M382.7.26l-1.43,4.61a17.52,17.52,0,0,0,5.36-.67l-.73-3h3.21l1.66,7.18h-3.18l-.35-1.55a12.08,12.08,0,0,1-3.67.91c-1.46.15-3.66.23-6.62.23V4.9h.94L379.23.26Zm7.37,9.68V23.35a3.33,3.33,0,0,1-.74,2.27,2.88,2.88,0,0,1-2.29.85h-3.18V24.05h2a.8.8,0,0,0,.56-.23.76.76,0,0,0,.25-.59V21.75h-5.57v4.72h-3.41V9.94Zm-9,4.64h5.57V12.36h-5.57Zm0,4.75h5.57V17.05h-5.57ZM395.47.26V3.12L403.13.85V3.91l-7.66,2.27V8.37a.88.88,0,0,0,.23.61.86.86,0,0,0,.67.26H400a5.65,5.65,0,0,0,3.17-1v3.38a6.46,6.46,0,0,1-3.06.73h-4.63a3.25,3.25,0,0,1-2.39-1,3.27,3.27,0,0,1-1-2.42V.26Zm0,13.67v2.74l7.66-2.39v3.07l-7.66,2.3v2.42a.84.84,0,0,0,1,.93h3.5a5.64,5.64,0,0,0,3.2-.93v3.38a7.58,7.58,0,0,1-3.17.67h-4.55a3.29,3.29,0,0,1-2.36-.95,3.08,3.08,0,0,1-1-2.34v-8.9Z"/><rect class="cls-1" y="126.2" width="465.94" height="77.61" rx="5.67"/><path class="cls-2" d="M54.94,145.24v3.65h6v4.53a21,21,0,0,1-2,6,39.27,39.27,0,0,1-3.81,6.2v1.23l1.67,1.1,3.13-5.5h3.82l-4.22,7.48,2.64,1.71v5.59l-7-5.06v12.62h-5V171a23.67,23.67,0,0,1-5.8,4.13v-6.59A21.64,21.64,0,0,0,52,162.13a18.63,18.63,0,0,0,3.78-8.31H44.39v-4.93H50v-3.65Zm27.84.71v31.52c0,2.49-.66,4.33-2,5.52a7.57,7.57,0,0,1-5.3,1.78h-4v-5.1h3.21q3.12,0,3.12-3.25V151.13H72.53q0,15.39-1.8,21.94a20.43,20.43,0,0,1-8.18,11.7v-7.08a17,17,0,0,0,4-8.4q1.11-5.26,1.1-18.16H62.55V146Z"/><path class="cls-2" d="M113.42,145.24a29.71,29.71,0,0,1-1.14,8.27A32.13,32.13,0,0,1,109,161h1.1v23.74h-5v-18.6a23.11,23.11,0,0,1-2.11,1.89,28.7,28.7,0,0,1-2.37,1.67v-7.08a15.74,15.74,0,0,0,5.34-6.9,25.38,25.38,0,0,0,2.13-10.51Zm25.63,0v5.15a47.91,47.91,0,0,1-9.45,2.15v9.59h10.55v5.18H129.6v11.83h9.45v5.1H114.61v-5.1h9.5V167.31H113.55v-5.18h10.56v-9.06c-1.12,0-2.78.05-5,.15s-3.71.16-4.5.16v-5.15a122.37,122.37,0,0,0,13.76-.66A51.78,51.78,0,0,0,139.05,145.24Z"/><path class="cls-2" d="M165.87,149.29v5.27l-9-4.09v-5.18Zm.09,12v15.17a3.35,3.35,0,0,0,1.54,2.37,7.58,7.58,0,0,0,3.83.75h25.1v4.66H170.36a12.25,12.25,0,0,1-5-.81,5.86,5.86,0,0,1-2.62-2.27L157,184.77v-5.58l4.09-2.64v-10.2H157v-5.06ZM196.43,146v6.85h-2.64v2.51h-9v2.29h10.59v13.06H184.74v2.11h11.69V176H184.74v2.41h-4.88V176h-11.7v-3.21h11.7v-2.11H169.3V157.6h10.56v-2.29h-9.1V152.8h-2.6V146Zm-23.65,6.11h7.08v-2.42h-7.08Zm.83,10.51H180v-2h-6.42Zm0,5.05H180v-2h-6.42Zm10.95-5.05h6.51v-2h-6.51Zm0,5.05h6.51v-2h-6.51Zm.18-15.56h7v-2.42h-7Z"/><path class="cls-2" d="M213.23,148.23h7.91v-3h4.53v3h7.48v4.05h-7.48v2.94h7V174.3h-7v3.13h7.48v4h-7.48v3.34h-4.53v-3.34h-7.91v-4h7.91V174.3H214V155.22h7.16v-2.94h-7.91Zm4.92,14.47h3v-3.48h-3Zm0,7.6h3v-3.56h-3Zm7.52-7.6h2.86v-3.48h-2.86Zm0,7.6h2.86v-3.56h-2.86Zm8.84-10.94h18.2v5.14h-9l-2.95,14.73a16.64,16.64,0,0,0,3.48-.29,13,13,0,0,0,2.81-1l-1.63-8.84h4.49l2.81,15.7h-4.48l-.44-2.24a15.62,15.62,0,0,1-4.68,1.38,75.68,75.68,0,0,1-8.6.33v-4.92h1.32l3.08-14.82h-4.4Zm1-13.41h16.09v5.1H235.52Z"/><path class="cls-2" d="M287.32,145.24v2.86h10.77v4.62H287.32v4.13h7.29a40.22,40.22,0,0,0,8.49-10.2h5.5a48.51,48.51,0,0,1-7.79,10.2H309v4.53H295.54a69.64,69.64,0,0,1-6.29,4h17.54v18.86h-33.9V171.32l-3.38.79V167a53.33,53.33,0,0,0,18.2-5.58h-18.2v-4.53h12.66v-4.13H270.56V148.1h11.61v-2.86Zm-9.41,27.7h23.74v-3.87H280.72l-2.81.93Zm0,7.65h23.74v-3.91H277.91Z"/><path class="cls-2" d="M342.28,146v4.79H336a41.15,41.15,0,0,1-.68,4.72A33.87,33.87,0,0,1,334,160h7.38v24.22h-13.1v-15c-.62.68-1.1,1.19-1.45,1.54-.5.41-.84.71-1,.88v-7.43a17.6,17.6,0,0,0,3.8-6.05,19.84,19.84,0,0,0,1.56-7.49h-5.36V146Zm-9.63,33.54h4.44V164.76h-4.44ZM365.27,146v5h-2.68v11.26h2.68v4.88h-2.68v17.72h-5V167.05H351.9a25.84,25.84,0,0,1-2.08,11.08,14.33,14.33,0,0,1-6.27,6.64V178a8.48,8.48,0,0,0,2.62-4,22,22,0,0,0,.9-7h-3v-4.88h3V150.91H344v-5ZM352,162.17h5.67V150.91H352Z"/><path class="cls-2" d="M390.68,145.24a72.67,72.67,0,0,1-.52,9.48,29.32,29.32,0,0,1-1.72,6.88h1.15v23.17H385V167.31c-.32.3-.79.71-1.41,1.24s-1,.87-1.49,1.23v-7.3q1.94-1.89,2.83-6.16a55.38,55.38,0,0,0,.9-11.08Zm5.54,5.81v32.58h-4.08V151.05ZM409,145.24c-.09.5-.17,1-.22,1.5s-.25.66-.31.83h13.1v4.27h-1.93a19.25,19.25,0,0,1-1.92,4.86,16.74,16.74,0,0,1-3.23,4.06,25.69,25.69,0,0,0,7.08.93V166l-1.1-.09v3.69a33.78,33.78,0,0,1-8.84,2.15,102.62,102.62,0,0,1-12.31.62v-4a111.41,111.41,0,0,0,11.76-.49,30.23,30.23,0,0,0,8.25-2,29,29,0,0,1-4.79-.79,28.72,28.72,0,0,1-4.22-1.45,27.49,27.49,0,0,1-5.54,2.06,26.51,26.51,0,0,1-6.6.75v-4.26a26,26,0,0,0,4-.29,20.51,20.51,0,0,0,3.59-.9,19.12,19.12,0,0,1-4.36-4.79,15.78,15.78,0,0,1-3.25,1.36v-5.06a8.79,8.79,0,0,0,4.07-2.66,8.44,8.44,0,0,0,1.95-4.55Zm11.47,26.34v4.31a29.36,29.36,0,0,1-8.53,2.15,108.67,108.67,0,0,1-12.62.62v-4.18a117.69,117.69,0,0,0,12.4-.44A27.3,27.3,0,0,0,420.45,171.58Zm0,6.55v4.27a39.49,39.49,0,0,1-8.57,1.84,120.32,120.32,0,0,1-12.58.53v-4c3.64,0,6.63-.05,9-.15a43.12,43.12,0,0,0,6.27-.68A30.33,30.33,0,0,0,420.45,178.13ZM403.7,154.7h1.8a11.72,11.72,0,0,0,1.89,2.37A14.21,14.21,0,0,0,409.9,159a13.25,13.25,0,0,0,3.34-3.16,15,15,0,0,0,2-4h-8.84a13.45,13.45,0,0,1-1.62,1.8C404.61,153.76,404.26,154.11,403.7,154.7Z"/><path class="cls-3" d="M444.19,91.28q0,8.18-3.87,12.31-3.65,3.87-10.13,3.87v-4.83q4.76,0,7.06-2.84t2.3-8.66q0-5.31-2.62-8.37c-1.92-2.21-4.69-3.31-8.33-3.31q-6.45,0-9.62,3.83-2.87,3.54-2.87,9.91A11.48,11.48,0,0,0,417.34,99a3.64,3.64,0,0,0,3.15,2.12c1.48,0,2.79-1.85,3.95-5.55a48.6,48.6,0,0,0,1.73-14.17h4.53q0,10.8-2.76,17.69-2.88,7.2-7.67,7.19a7.23,7.23,0,0,1-6.26-3.5c-1.58-2.33-2.36-5.52-2.36-9.55q0-8.1,4-12.9,4.45-5.3,13.15-5.3,7.38,0,11.47,4.53Q444.19,83.87,444.19,91.28Z"/><rect class="cls-4" x="151.04" y="59.26" width="41.31" height="6.89"/><path class="cls-4" d="M151,79.92h34.42a20.66,20.66,0,0,1-20.65,20.65v6.88a27.54,27.54,0,0,0,27.54-27.53V73H151Z"/><path class="cls-4" d="M336.92,59.26v6.89A13.75,13.75,0,0,1,330,78.07v7.55A20.65,20.65,0,0,0,343.8,66.15h20.66V79.92a20.66,20.66,0,0,1-20.66,20.65v6.88a27.54,27.54,0,0,0,27.54-27.53V59.26H336.92Z"/><rect class="cls-4" x="381.67" y="59.26" width="3.44" height="6.89"/><rect class="cls-4" x="374.78" y="59.26" width="3.44" height="6.89"/><rect class="cls-4" x="199.23" y="79.92" width="34.42" height="6.88"/><rect class="cls-4" x="233.65" y="100.57" width="41.31" height="6.89"/><rect class="cls-4" x="237.1" y="59.26" width="34.42" height="6.89"/><rect class="cls-4" x="281.84" y="59.26" width="20.65" height="6.89"/><path class="cls-1" d="M27.12,59.26v6.89a13.77,13.77,0,0,1-6.88,11.92v7.55A20.65,20.65,0,0,0,34,66.15H54.66V79.92A20.66,20.66,0,0,1,34,100.57v6.88A27.54,27.54,0,0,0,61.54,79.92V59.26H27.12Z"/><rect class="cls-1" x="71.87" y="59.26" width="3.44" height="6.89"/><rect class="cls-1" x="64.99" y="59.26" width="3.44" height="6.89"/><rect class="cls-1" x="140.71" y="59.26" width="3.44" height="6.89"/><rect class="cls-1" x="133.83" y="59.26" width="3.44" height="6.89"/><path class="cls-1" d="M102.85,73H96V86.8A13.78,13.78,0,0,1,82.2,100.57v6.88A20.65,20.65,0,0,0,102.85,86.8Z"/><rect class="cls-1" x="82.2" y="73.03" width="6.89" height="13.77"/><rect class="cls-1" x="68.43" y="73.03" width="6.88" height="13.77"/><path class="cls-1" d="M130.39,79.92a20.58,20.58,0,0,1-13.77-5.27V59.26h-6.88v48.19h6.88V83.1a27.34,27.34,0,0,0,13.77,3.7h13.76V79.92Z"/><path class="cls-4" d="M316.26,79.92h0a20.65,20.65,0,0,1-20.65,20.65H281.84v6.88h13.77a27.54,27.54,0,0,0,27.54-27.53V59.26h-6.89Z"/><rect class="cls-1" x="391.99" y="59.26" width="6.89" height="34.42"/><rect class="cls-1" x="391.99" y="100.57" width="6.89" height="6.89"/></g></g></svg>