<svg xmlns="http://www.w3.org/2000/svg" viewBox="0 0 257.84 22.5"><defs><style>.cls-1{fill:#2a7c61;}.cls-2{fill:#298064;}</style></defs><g id="レイヤー_2" data-name="レイヤー 2"><g id="レイヤー_1-2" data-name="レイヤー 1"><polygon class="cls-1" points="252.39 22.5 251.84 22.5 254.84 0 257.84 0 252.39 22.5"/><polygon class="cls-1" points="5.44 22.5 6 22.5 3 0 0 0 5.44 22.5"/><path class="cls-2" d="M25.24,3.32v1h7.59V6H25.24V7h7.11v3.66H25.24v1h7.11v2.5h.48v1.41h-.48v2.5H25.24V19a2,2,0,0,1-.47,1.41,2.06,2.06,0,0,1-1.51.48h-3V19.24h2.09a.53.53,0,0,0,.39-.16.56.56,0,0,0,.15-.41v-.6H15.76v-1.5h7.13v-1h-7.6V14.16h7.6v-1H15.76V11.66h7.13v-1H15.76V7h7.13V6h-7.6V4.28h7.6v-1Zm-7.17,6h4.82V8.28H18.07Zm7.17,0H30V8.28h-4.8Zm0,4.8h4.92v-1H25.24Zm0,2.41h4.92v-1H25.24Z"/><path class="cls-2" d="M38.5,3.64a4,4,0,0,1,.44.8c.12.3.23.6.32.91h1.31v-2h2.28v2h2.41v-2h2.3v2h1.35l.74-1.71h2.21l-.78,1.71h1.75v1.9H49.57L49.1,9h3.73v1.72H45.24v1.34h7.11v1.59H45.24V15h7.59v1.7h-5.9c1.1,1.36,3,2,5.77,2v2.13A10.61,10.61,0,0,1,48.17,20a7.39,7.39,0,0,1-2.93-2.42v3.3H42.91V17.62a7.77,7.77,0,0,1-3,2.36,10.87,10.87,0,0,1-4.57.9V18.75c2.86,0,4.83-.67,5.92-2H35.29V15h7.62V13.66H35.76V12.07h7.15V10.73H35.29V9h3.93A7.78,7.78,0,0,0,39,8.14c-.1-.27-.21-.57-.36-.89H35.29V5.35h1.82a4.76,4.76,0,0,0-.29-.85,4.52,4.52,0,0,0-.51-.86Zm3,5.37h5.22l.43-1.76H41.06c.07.23.16.51.25.83A8.76,8.76,0,0,1,41.52,9Z"/><path class="cls-2" d="M63.2,3.32V4.59H68V6.64H63.2V8.48h3.25A18.13,18.13,0,0,0,70.22,4h2.44A21.74,21.74,0,0,1,69.2,8.48h3.63v2h-6a31.09,31.09,0,0,1-2.8,1.78h7.8v8.38H56.8V14.91l-1.51.35V13a23.82,23.82,0,0,0,8.09-2.48H55.29v-2h5.63V6.64H55.76v-2h5.16V3.32ZM59,15.63H69.57V13.91h-9.3L59,14.32ZM59,19H69.57V17.29H59Z"/><path class="cls-2" d="M85.51,13.56H82.6V10.71h2.91Z"/><path class="cls-2" d="M99.26,3.32,99.1,4h4.73V5.69H102l.37,1.87h-2.2l-.39-1.87H98.5q-.33.61-.48.87a3.44,3.44,0,0,1-.42.53H95.18a7.29,7.29,0,0,0,1-1.71A8.47,8.47,0,0,0,97,3.32Zm6,4v.84h7.59v3.63h-1.42V15.2H98.91v1.15h12.83v4.3H96.64V11.82H95.29V8.19h7.6V7.35ZM97.31,11h13.51V9.83H97.31Zm1.6,2.79h10.25V12.44H98.91Zm0,5.45h10.58V17.8H98.91Zm9.16-15.9-.16.65h4.92V5.69h-2l.33,1.87H109l-.34-1.87h-1.32c-.13.27-.27.53-.41.79a3.22,3.22,0,0,1-.45.61H104a6.15,6.15,0,0,0,1-1.69,9.16,9.16,0,0,0,.73-2.08Z"/><path class="cls-2" d="M121.31,3.64V5.76h-2v4.5H121v2.15h-1.66v5.74a7.8,7.8,0,0,0,1.06-.42,3.41,3.41,0,0,0,.91-.66v2.39a4.35,4.35,0,0,1-1.5.67,8.83,8.83,0,0,1-2.17.24h-2.35V18.32h2V12.41h-1.74V10.26h1.74V5.76h-2V3.64Zm11,0v9.27H128.4v1.94h3.95v2H128.4v1.85h4.41v2H121.62v-2h4.51V16.82h-4v-2h4V12.91h-4V3.64ZM124.2,7.42h2v-2h-2Zm0,3.75h2v-2h-2Zm4.14-3.75h2v-2h-2Zm0,3.75h2v-2h-2Z"/><path class="cls-2" d="M143.2,3.32V4.59H148V6.64H143.2V8.48h3.25A18.13,18.13,0,0,0,150.22,4h2.44a21.74,21.74,0,0,1-3.46,4.53h3.63v2h-6a31.09,31.09,0,0,1-2.8,1.78h7.8v8.38H136.8V14.91l-1.51.35V13a23.82,23.82,0,0,0,8.09-2.48h-8.09v-2h5.63V6.64h-5.16v-2h5.16V3.32ZM139,15.63h10.55V13.91h-9.3l-1.25.41Zm0,3.4h10.55V17.29H139Z"/><path class="cls-1" d="M172,12.17c0,2.87-.68,5-2,6.49a7,7,0,0,1-5.34,2V18.15a4.53,4.53,0,0,0,3.72-1.49,7.17,7.17,0,0,0,1.22-4.57,6.59,6.59,0,0,0-1.38-4.42,5.52,5.52,0,0,0-4.4-1.74,6.18,6.18,0,0,0-5.07,2,8.07,8.07,0,0,0-1.52,5.23,6,6,0,0,0,.66,3,1.91,1.91,0,0,0,1.66,1.12c.77,0,1.47-1,2.08-2.93a25.53,25.53,0,0,0,.91-7.47h2.39a25.22,25.22,0,0,1-1.46,9.33c-1,2.52-2.36,3.79-4,3.79a3.81,3.81,0,0,1-3.3-1.85,8.89,8.89,0,0,1-1.25-5A10.3,10.3,0,0,1,157,6.37c1.57-1.86,3.88-2.8,6.94-2.8A7.75,7.75,0,0,1,170,6,9,9,0,0,1,172,12.17Z"/><path class="cls-1" d="M190.8,18.44c-.62-.63-1.34-1.29-2.15-2s-1.55-1.23-2.51-1.94A13,13,0,0,1,181.22,19a16.1,16.1,0,0,1-7.43,1.65V18.19a13.28,13.28,0,0,0,6-1.3A10.43,10.43,0,0,0,184,13.14a43.7,43.7,0,0,0-4.65-2.58,25,25,0,0,0-4.29-1.62V6.31a41.72,41.72,0,0,1,5.21,2A46.72,46.72,0,0,1,185.09,11a14.23,14.23,0,0,0,.83-5V3.87h2.53V6a16.65,16.65,0,0,1-1.2,6.4c.64.44,1.28.92,1.9,1.44s1.1.94,1.65,1.46Z"/><path class="cls-1" d="M195.84,13.92h-2.47v-10h2.47ZM209.25,11c0,3.26-.85,5.67-2.55,7.21s-4.32,2.31-7.87,2.31h-3.38V18.11h3.44q4.2,0,6.1-1.86A7,7,0,0,0,206.78,11V3.88h2.47Z"/><path class="cls-1" d="M214.75,14.87h-2.14l-.79-7h2.11Zm10.52-3.64q0,4.59-2.12,6.83c-1.54,1.61-4.06,2.43-7.54,2.43h-3.19V18.35h3.17c2.81,0,4.79-.61,5.93-1.81s1.53-2.87,1.53-5.33V7.73h2.22Zm-5.83,3.64h-2.16l-.78-7h2.12Z"/><path class="cls-1" d="M243,14.19a37.73,37.73,0,0,1-6.88-.6A20.22,20.22,0,0,1,230.73,12v8.67h-2.49v-17h2.49V9.29A19.17,19.17,0,0,0,236.22,11a37.78,37.78,0,0,0,6.76.62Z"/></g></g></svg>