<svg xmlns="http://www.w3.org/2000/svg" viewBox="0 0 214.17 22.5"><defs><style>.cls-1{fill:#2a7c61;}</style></defs><g id="レイヤー_2" data-name="レイヤー 2"><g id="レイヤー_1-2" data-name="レイヤー 1"><polygon class="cls-1" points="208.73 22.5 208.18 22.5 211.18 0 214.17 0 208.73 22.5"/><polygon class="cls-1" points="5.44 22.5 6 22.5 3 0 0 0 5.44 22.5"/><path class="cls-1" d="M31,14.15a38.41,38.41,0,0,1-6.81-.58A22.14,22.14,0,0,1,18.84,12v8.61H16.27V3.67h2.57V9.29A19.55,19.55,0,0,0,24.32,11a37.18,37.18,0,0,0,6.67.6Zm-1.7-7.8H27.93V3.19h1.36Zm2.32,0H30.25V3.19h1.36Z"/><path class="cls-1" d="M50.19,12.2a7.28,7.28,0,0,1-2.7,6.11c-2,1.49-4.86,2.23-8.75,2.23H34.66V18.09h4c3.07,0,5.3-.44,6.68-1.34a4.79,4.79,0,0,0,2.07-4.35v-.64h-14V9.33H50.19Zm-.41-5.38H33.86V4.33H49.78Z"/><path class="cls-1" d="M69.38,3.69a7.24,7.24,0,0,1-1.54,4.72,9.09,9.09,0,0,1-4,2.63v9.54H61.41V11.74l-8.83,2V11.17l8.26-1.8A10.86,10.86,0,0,0,65,7.6a4.76,4.76,0,0,0,1.87-3.91Z"/><path class="cls-1" d="M77.46,4a43.87,43.87,0,0,1-1,8,52.69,52.69,0,0,1-2.36,8.59H71.55A59.19,59.19,0,0,0,74,11.8,42,42,0,0,0,75,4ZM89.13,20.6H86.66a37.65,37.65,0,0,0-1.25-8.26A69.26,69.26,0,0,0,82.85,4h1.94V7.19h1.4c.43,1.31.86,2.75,1.3,4.32.52,1.84.91,3.42,1.17,4.76A24.52,24.52,0,0,1,89.13,20.6Zm-2-14.32H85.72V3.15H87.1Zm2.3,0H88V3.15H89.4Z"/><path class="cls-1" d="M108,13.62H92.18V10.94H108Z"/><path class="cls-1" d="M127.93,12.17c0,2.87-.68,5-2.05,6.49a7,7,0,0,1-5.34,2V18.15a4.53,4.53,0,0,0,3.72-1.49,7.17,7.17,0,0,0,1.22-4.57,6.6,6.6,0,0,0-1.38-4.41,5.5,5.5,0,0,0-4.4-1.75,6.18,6.18,0,0,0-5.07,2,8.09,8.09,0,0,0-1.52,5.23,6.1,6.1,0,0,0,.65,3,1.93,1.93,0,0,0,1.67,1.12c.77,0,1.47-1,2.08-2.93a25.87,25.87,0,0,0,.91-7.47h2.39a25.22,25.22,0,0,1-1.46,9.33c-1,2.52-2.36,3.79-4,3.79a3.79,3.79,0,0,1-3.3-1.85,8.89,8.89,0,0,1-1.25-5,10.3,10.3,0,0,1,2.12-6.81c1.57-1.86,3.88-2.8,6.94-2.8a7.69,7.69,0,0,1,6,2.4A8.88,8.88,0,0,1,127.93,12.17Z"/><path class="cls-1" d="M146.72,18.44c-.62-.63-1.34-1.29-2.15-2s-1.55-1.23-2.51-1.94A13,13,0,0,1,137.14,19a16.1,16.1,0,0,1-7.43,1.65V18.19a13.28,13.28,0,0,0,6-1.3,10.43,10.43,0,0,0,4.18-3.75,43.7,43.7,0,0,0-4.65-2.58A25,25,0,0,0,131,8.94V6.31a41.72,41.72,0,0,1,5.21,2A46.72,46.72,0,0,1,141,11a14.23,14.23,0,0,0,.83-5V3.87h2.53V6a16.65,16.65,0,0,1-1.2,6.4c.64.44,1.28.92,1.9,1.44s1.1.94,1.65,1.46Z"/><path class="cls-1" d="M151.76,13.92h-2.47v-10h2.47ZM165.17,11c0,3.26-.85,5.67-2.55,7.21s-4.32,2.31-7.87,2.31h-3.38V18.11h3.44q4.2,0,6.1-1.86A7,7,0,0,0,162.7,11V3.89h2.47Z"/><path class="cls-1" d="M170.67,14.87h-2.14l-.79-7h2.11Zm10.52-3.64q0,4.59-2.12,6.83c-1.54,1.62-4.06,2.43-7.54,2.43h-3.19V18.35h3.17c2.81,0,4.78-.61,5.92-1.81S179,13.68,179,11.21V7.73h2.22Zm-5.84,3.64H173.2l-.78-7h2.12Z"/><path class="cls-1" d="M198.9,14.19a37.92,37.92,0,0,1-6.89-.6A20.26,20.26,0,0,1,186.65,12v8.67h-2.49v-17h2.49V9.29A19.17,19.17,0,0,0,192.14,11a37.78,37.78,0,0,0,6.76.62Z"/></g></g></svg>