<svg xmlns="http://www.w3.org/2000/svg" viewBox="0 0 430.29 32.91"><defs><style>.cls-1{fill:#231815;}.cls-2{fill:#898989;}.cls-3{fill:#2a7c61;}</style></defs><g id="レイヤー_2" data-name="レイヤー 2"><g id="レイヤー_1-2" data-name="レイヤー 1"><path class="cls-1" d="M293.16,32.35h-15q-7.14,0-10-2-2.43-1.72-2.43-5.57a9.08,9.08,0,0,1,.75-3.57,10.78,10.78,0,0,1,2.21-3.31h4.68a12,12,0,0,0-2.46,3.19,6.88,6.88,0,0,0-.79,3.09,3.35,3.35,0,0,0,1.69,3.22c1.13.62,3.26.93,6.41.93h14.94ZM289.84,9.84l-2.69,2.92H282.2l3-3.15H267.39v-4h19.76V9.84Zm1.26-1.36h-2.36V3h2.36Zm3.95,0h-2.36V3h2.36Z"/><path class="cls-1" d="M305.58,3V7.15h3.15V10.7h-3.15v7.07a23.74,23.74,0,0,0,3.15-1.22v3.88c-.33.16-.83.37-1.49.63-.47.18-1,.38-1.66.6v8.1a3.05,3.05,0,0,1-.87,2.22,3,3,0,0,1-2.25.9H299V29.23h2a1.06,1.06,0,0,0,.73-.27.86.86,0,0,0,.29-.66V22.59c-.48.13-1,.26-1.69.38l-1.83.35V19.5c.38,0,.9-.13,1.55-.25l2-.38V10.7H298.5V7.15H302V3ZM320.88,16V18.4h7.44V22h-5.68a11.37,11.37,0,0,0,2.15,4.05,8.6,8.6,0,0,0,3.53,2.53v4.28a11.3,11.3,0,0,1-4.4-2.64,13.81,13.81,0,0,1-3-4.46v7.1h-4V25.64a14.2,14.2,0,0,1-3.12,4.54,12.06,12.06,0,0,1-4.45,2.7V28.6a9,9,0,0,0,3.55-2.54A10.65,10.65,0,0,0,315,22H309.5V18.4h7.4V16ZM313,8.74a20,20,0,0,1,1.26,3.44,13.3,13.3,0,0,1,.5,3.44h-3.36a24.56,24.56,0,0,0-.64-3.57,18.78,18.78,0,0,0-1.12-3.31Zm15-5.68V6.32a36,36,0,0,1-6.89,1q-3.66.18-11.34.18V4.09h2.86q5.74,0,6.84,0A54.67,54.67,0,0,0,327.92,3.06Zm-8.53,5.68a16.65,16.65,0,0,1,.95,3,15,15,0,0,1,.34,3.07h-3.42a16.49,16.49,0,0,0-.29-3.1,15,15,0,0,0-.9-3Zm8.67-.36-1.9,7.8h-3.55l2.06-7.8Z"/><path class="cls-1" d="M361.49,3.56V28.7a4.12,4.12,0,0,1-1.09,3.15,4.23,4.23,0,0,1-3,1h-4.11V28.83h3.15c.75,0,1.13-.34,1.13-1V23.48h-7.47v9h-3.95v-9h-7.74a14.6,14.6,0,0,1-1.82,5.45,11,11,0,0,1-4.06,4V27.67a6.28,6.28,0,0,0,1.73-3.06,19.06,19.06,0,0,0,.5-4.74V3.56Zm-22.81,8.37h7.44V6.85h-7.44Zm0,7.94v.33h7.44v-5h-7.44Zm11.39-7.94h7.47V6.85h-7.47Zm0,8.27h7.47v-5h-7.47Z"/><path class="cls-1" d="M396.32,32.91a21.22,21.22,0,0,1-8.76-1.61,13.59,13.59,0,0,1-5.81-4.89,12,12,0,0,1-5.7,4.81,23.67,23.67,0,0,1-9.55,1.69V29.49a19.85,19.85,0,0,0,7-1.06,9.46,9.46,0,0,0,4.27-2.95H366.5v-3h12.75a10.47,10.47,0,0,0,.17-1,9.79,9.79,0,0,0,.07-1.08v-.23H368.93v-3h10.56V14.82H368v-3h11.46V9.51h3.85v2.32h11.42v3H383.34v2.32h10.52v3H383.34a10.84,10.84,0,0,1-.23,2.36h13.21v3H385.26a10,10,0,0,0,4.27,2.95,18.87,18.87,0,0,0,6.79,1.06Zm-.23-22.18H392.4V8.05H370.46v2.68h-3.72V4.63h12.68V3h4v1.6h12.68Z"/><path class="cls-1" d="M403.86,23.25c0,2-.07,3.8-.22,5.5a25.28,25.28,0,0,1-.51,3.73h-2.69a18.9,18.9,0,0,0,.51-3.7c.13-1.74.19-3.58.19-5.53Zm5-20.22-5.11,6.24H407l1.7-2.19h3.78l-8.13,10.3H407a6.53,6.53,0,0,0,2.43-.4l-.5-3.42h2.69l1.26,8.23H410.2L410,20.2a4.67,4.67,0,0,1-.8.26,6.26,6.26,0,0,1-1,.17V32.88h-3.29V20.73H400.5V17.28l3.89-4.85H400.5V8.68L404.92,3ZM412,23.25l.83,9.23h-2.69l-.8-9.23ZM423.55,3V4.66h6.74V7.31h-6.74v1.4h6v2.66h-6v1.39h6.74v2.72H412.86V12.76h6.9V11.37h-6.07V8.71h6.07V7.31h-6.9V4.66h6.9V3Zm5.94,13.71V30.42H428.2L430,32.88h-3.82l-1.73-2.46H419c-.27.45-.55.88-.86,1.3a12.66,12.66,0,0,1-1,1.16h-4.08c.44-.46.83-.88,1.16-1.24a9.78,9.78,0,0,0,.93-1.22h-1.46V16.74ZM417.21,20.5H426V19.14h-8.79Zm0,3.75H426v-1.4h-8.79Zm0,3.72H426V26.61h-8.79Z"/><rect class="cls-2" x="87.86" width="27.75" height="4.63"/><path class="cls-2" d="M87.86,13.87H111A13.88,13.88,0,0,1,97.11,27.75v4.62a18.5,18.5,0,0,0,18.5-18.5V9.25H87.86Z"/><path class="cls-2" d="M212.73,0V4.63a9.21,9.21,0,0,1-4.63,8V17.7a13.86,13.86,0,0,0,9.25-13.07h13.87v9.24a13.88,13.88,0,0,1-13.87,13.88v4.62a18.5,18.5,0,0,0,18.5-18.5V0H212.73Z"/><rect class="cls-2" x="242.79" width="2.31" height="4.63"/><rect class="cls-2" x="238.16" width="2.31" height="4.63"/><rect class="cls-2" x="120.24" y="13.87" width="23.12" height="4.62"/><rect class="cls-2" x="143.36" y="27.75" width="27.75" height="4.63"/><rect class="cls-2" x="145.67" width="23.12" height="4.63"/><rect class="cls-2" x="175.73" width="13.87" height="4.63"/><path class="cls-3" d="M4.63,0V4.63a9.23,9.23,0,0,1-4.63,8V17.7A13.86,13.86,0,0,0,9.25,4.63H23.12v9.24A13.88,13.88,0,0,1,9.25,27.75v4.62a18.5,18.5,0,0,0,18.5-18.5V0H4.63Z"/><rect class="cls-3" x="34.68" width="2.31" height="4.63"/><rect class="cls-3" x="30.06" width="2.31" height="4.63"/><rect class="cls-3" x="80.93" width="2.31" height="4.63"/><rect class="cls-3" x="76.3" width="2.31" height="4.63"/><path class="cls-3" d="M55.49,9.25H50.87V18.5a9.25,9.25,0,0,1-9.25,9.25v4.62A13.87,13.87,0,0,0,55.49,18.5Z"/><rect class="cls-3" x="41.62" y="9.25" width="4.63" height="9.25"/><rect class="cls-3" x="32.37" y="9.25" width="4.62" height="9.25"/><path class="cls-3" d="M74,13.87a13.82,13.82,0,0,1-9.25-3.53V0H60.12V32.37h4.62V16A18.46,18.46,0,0,0,74,18.5h9.25V13.87Z"/><path class="cls-2" d="M198.85,13.87h0A13.88,13.88,0,0,1,185,27.75h-9.25v4.62H185a18.5,18.5,0,0,0,18.5-18.5V0h-4.63Z"/><rect class="cls-3" x="249.72" width="4.63" height="23.12"/><rect class="cls-3" x="249.72" y="27.75" width="4.63" height="4.63"/></g></g></svg>