<svg xmlns="http://www.w3.org/2000/svg" viewBox="0 0 76.8 28.19"><defs><style>.cls-1{fill:#231815;}</style></defs><g id="レイヤー_2" data-name="レイヤー 2"><g id="レイヤー_1-2" data-name="レイヤー 1"><path class="cls-1" d="M22.15,4.58H4.38v7.77h16.5v4.19H4.38V27.26H0V.2H22.15Z"/><path class="cls-1" d="M49.44,27.26H44.82L43.1,21.91h-13l-1.79,5.35H23.81L32.9,0h7.44Zm-7.7-9.5L36.59,2.06l-5.08,15.7Z"/><path class="cls-1" d="M76.8,28.19,73,25.2a8.41,8.41,0,0,1-3.21,1.69,15.09,15.09,0,0,1-4.33.57h-3q-10.59,0-10.59-10.79V10.82Q51.8,0,62.42,0h3Q76.07,0,76.07,10.82V16.7a13.74,13.74,0,0,1-1,5.61l1.76,1.33ZM71.62,16.44V11.06q0-3.56-1.45-5.12t-5-1.56H62.62c-2.32,0-4,.51-4.93,1.51s-1.44,2.73-1.44,5.17l0,5.38c0,2.36.48,4.07,1.45,5.11s2.6,1.56,4.93,1.56h2.62a8.29,8.29,0,0,0,4-.8l-5.78-4.48V13.45l7.83,6A10.31,10.31,0,0,0,71.62,16.44Z"/></g></g></svg>