<svg xmlns="http://www.w3.org/2000/svg" viewBox="0 0 131.22 29.85"><defs><style>.cls-1{fill:#231815;}</style></defs><g id="レイヤー_2" data-name="レイヤー 2"><g id="レイヤー_1-2" data-name="レイヤー 1"><path class="cls-1" d="M29.29,20.05A8.26,8.26,0,0,1,26.1,27q-3.2,2.46-9.4,2.46V25.4A11.69,11.69,0,0,0,23,24a4.69,4.69,0,0,0,2.16-4.22,4.81,4.81,0,0,0-2.53-4.5q-2.52-1.44-7.5-1.44h-.6v7.27a8.91,8.91,0,0,1-1.49,5.38,6.59,6.59,0,0,1-5.58,2.39A7,7,0,0,1,2,26.65a8.76,8.76,0,0,1-2-6,9,9,0,0,1,2.79-6.74,14.43,14.43,0,0,1,7.9-3.59v-4H1.36V2.42h9.33v-2h3.85V2.42h7.27V6.31H14.54V10H15q7.11,0,10.53,2.26Q29.29,14.68,29.29,20.05Zm-18.6.4V14.24a9.69,9.69,0,0,0-5.16,2.33,5.58,5.58,0,0,0-1.71,4.12,4.38,4.38,0,0,0,.91,3,3,3,0,0,0,2.34,1,3.39,3.39,0,0,0,2.79-1A5.1,5.1,0,0,0,10.69,20.45ZM29.52,9.89H25.67a31.57,31.57,0,0,0-.42-4.66,28.68,28.68,0,0,0-1-4.47h3.82a39.58,39.58,0,0,1,1,4.54A29.79,29.79,0,0,1,29.52,9.89Z"/><path class="cls-1" d="M50.63,0V2.89H62.72V25.23H50.63v4.62h-4V25.23H34.53V2.89H46.65V0ZM38.45,12.29h8.2V6.41h-8.2Zm0,9.33h8.2V15.9h-8.2Zm12.18-9.33H58.8V6.41H50.63Zm0,9.33H58.8V15.9H50.63Z"/><path class="cls-1" d="M74.48,3.05V7L67.7,4V0Zm.06,9.07V23.41a2.66,2.66,0,0,0,1.21,1.74,5.5,5.5,0,0,0,2.84.58h19v3.72H78.13a8.8,8.8,0,0,1-3.61-.58A5,5,0,0,1,72.42,27l-4.69,2.89V25.63l3.09-2v-7.7H67.73V12.12ZM89.18.53q0,8.18,2.43,12.85a12.26,12.26,0,0,0,5.94,5.74v4.62a19,19,0,0,1-5.91-3.85,18.88,18.88,0,0,1-4.22-6.34,18.39,18.39,0,0,1-4.21,6.17,18.12,18.12,0,0,1-6.34,4V19.12A13.74,13.74,0,0,0,83,14a15,15,0,0,0,2.45-8.43L85.3,4.28H78.16V.53Z"/><path class="cls-1" d="M131.22,20.05l-1.89-.89a40.55,40.55,0,0,1-1.43,6.27A14.7,14.7,0,0,1,126,29.38h-4.69a16,16,0,0,0,2.45-4.63,40.49,40.49,0,0,0,1.71-7.15,46.07,46.07,0,0,0-7.54-2.09q-1,7.17-3.49,10.32a7,7,0,0,1-5.78,2.79,6.22,6.22,0,0,1-5-2.06,8.52,8.52,0,0,1-1.76-5.71c0-3.34,1.08-5.86,3.22-7.57,2-1.53,4.73-2.29,8.21-2.29l.93,0c0-.73,0-1.77.08-3.13s.08-2.23.08-2.61H103.89V1.43H118.8c0,1.33,0,3.1-.16,5.33s-.17,3.77-.17,4.63a52.39,52.39,0,0,1,7.5,1.92c0-.75,0-2,.14-3.76s.13-3.15.13-4.17h4.15c0,3.25-.15,6.41-.43,9.46l1.26.6Zm-17.37-5L113,15a8.7,8.7,0,0,0-5.22,1.43,4.77,4.77,0,0,0-1.95,4.09,4.27,4.27,0,0,0,.89,3,2.62,2.62,0,0,0,2,.86,3.58,3.58,0,0,0,3-2.05A19.42,19.42,0,0,0,113.85,15Z"/></g></g></svg>