<svg xmlns="http://www.w3.org/2000/svg" viewBox="0 0 493.11 32.88"><defs><style>.cls-1{fill:#231815;}.cls-2{fill:#898989;}.cls-3{fill:#2a7c61;}</style></defs><g id="レイヤー_2" data-name="レイヤー 2"><g id="レイヤー_1-2" data-name="レイヤー 1"><path class="cls-1" d="M286.88,23.65c0,3.32-.65,5.62-2,6.91s-3.57,1.92-6.76,1.92h-2.82V28.2h2.79c1.75,0,2.94-.31,3.57-.91s.94-1.82.94-3.64v-8.2c0-1.88-.3-3.13-.91-3.74s-1.9-.91-3.87-.91H274.7q-.79,6.21-2,11.76A62.6,62.6,0,0,1,270,31.72h-4.29a54.84,54.84,0,0,0,2.79-9.18,106.51,106.51,0,0,0,2.06-11.74h-4.32V6.75H271l.23-3.39h4.12c0,.49,0,1-.07,1.63s-.09,1.19-.13,1.76h3.29c3,0,5.08.47,6.21,1.39q2.25,1.86,2.25,7.18ZM292,7.75h-2.33V2.27H292Zm3.62,18.19H291.5a82.21,82.21,0,0,0-.47-9.08,46.68,46.68,0,0,0-1.32-7.25h4.08A55.46,55.46,0,0,1,295.13,17,74,74,0,0,1,295.62,25.94ZM296,7.75h-2.36V2.27H296Z"/><path class="cls-1" d="M299.37,3.06l6.77,3v4L299.37,7Zm0,12.09h6.81V26.61a2.72,2.72,0,0,0,1.11,1.79,5.63,5.63,0,0,0,2.94.56h19v3.52H309.43a8.78,8.78,0,0,1-3.57-.55,4.44,4.44,0,0,1-1.94-1.77l-4.52,2.72V28.66l3.09-2V19H299.4ZM308,3.56h9.33V10.3h-6v1.36a.65.65,0,0,0,.73.73h3a6.82,6.82,0,0,0,1.64-.16,4,4,0,0,0,1.31-.63v2.79a5.68,5.68,0,0,1-2.49.56v1.69h6.11V15a2.43,2.43,0,0,1-1.83-.76,2.71,2.71,0,0,1-.73-1.93V8h6.05V6h-6.05V3.56h9.43V10.3h-6.07v1.36a.64.64,0,0,0,.73.73h3a7.63,7.63,0,0,0,1.74-.16,3.4,3.4,0,0,0,1.28-.63v2.79a3.66,3.66,0,0,1-1.15.43,7.27,7.27,0,0,1-1.48.13H325.3v1.69h3.05V19.4H325.3V22h3.92v2.83h-2.89l2.36,2.69h-3.92l-2.36-2.69h-7.07a11.45,11.45,0,0,1-1,1.34q-.56.61-1.35,1.35H308.7a14.71,14.71,0,0,0,2.79-2.69H308V22h4V19.4h-3.09V16.64H312V15h-1.33A2.57,2.57,0,0,1,308,12.26V8h5.94V6H308ZM315.57,22h6.11V19.4h-6.11Z"/><path class="cls-1" d="M338.68,3.5q-.66,4-1,7.75T337.35,19q0,3.08.3,6.84c.13,1.79.36,3.94.67,6.44h-4.09q-.39-3.39-.65-6.74c-.16-2.24-.25-4.4-.25-6.48a93.54,93.54,0,0,1,1.23-15.6Zm23.11,23.17a20.23,20.23,0,0,0-3.62-2.16q0,3.93-2.19,5.91c-1.59,1.42-4,2.13-7.24,2.13a9,9,0,0,1-6.11-1.88,6.59,6.59,0,0,1-2.12-5.23,6.48,6.48,0,0,1,1.92-4.94c1.49-1.4,3.64-2.1,6.48-2.1a24.38,24.38,0,0,1,5.18.57v-8.1H341.17v-4h13.71V9.34h3.29V20.16a26.26,26.26,0,0,1,3.62,1.6Zm-7.7-3.15V23a19.38,19.38,0,0,0-5.32-.83,5.65,5.65,0,0,0-3.18.79,2.74,2.74,0,0,0-1.2,2.46,2.67,2.67,0,0,0,1.11,2.32,5.42,5.42,0,0,0,3.21.8c2.08,0,3.53-.45,4.35-1.36A5.36,5.36,0,0,0,354.09,23.52Zm4.74-15.81h-2.35V2.2h2.35Zm4,0h-2.36V2.2h2.36Z"/><path class="cls-1" d="M394.76,31.92h-4.05a5,5,0,0,1-3.59-1.13c-.84-.84-1.26-2.25-1.26-4.22,0-1.59.16-3.88.48-6.85s.49-5.1.49-6.36a5.31,5.31,0,0,0-.6-2.87,2.2,2.2,0,0,0-2-.92,6.88,6.88,0,0,0-4.07,1.78,42.15,42.15,0,0,0-5.86,6.12v15h-4.12v-10c-1,1.19-2,2.38-3,3.56s-1.68,2-2.06,2.51V22.69q.57-.84,2.76-3.46c.77-.88,1.55-1.78,2.32-2.68V11h-4.85V6.75h4.85V3.36h4.12V11.7a28.25,28.25,0,0,1,6-5.28,10.23,10.23,0,0,1,5.28-1.6,5.08,5.08,0,0,1,4.28,1.9,7.86,7.86,0,0,1,1.36,4.88,53.81,53.81,0,0,1-.33,5.41q-.77,6.94-.76,8.13a2.94,2.94,0,0,0,.41,1.85,1.71,1.71,0,0,0,1.35.48h2.85Z"/><path class="cls-1" d="M426.67,21.82a9.63,9.63,0,0,1-3.12,7.67q-3.53,3-10.59,3c-4.08,0-7-.61-8.84-1.82a5.21,5.21,0,0,1-2.29-4.59,5.15,5.15,0,0,1,2.13-4.2,9.12,9.12,0,0,1,5.78-1.67,11.72,11.72,0,0,1,4.18.79,12.66,12.66,0,0,1,3.19,1.7V27a13.85,13.85,0,0,0-3.51-2.49,8.69,8.69,0,0,0-3.86-1,4.9,4.9,0,0,0-3,.74,2,2,0,0,0-.83,1.72,2.4,2.4,0,0,0,1.57,2.16,12.18,12.18,0,0,0,5.13.8q5.42,0,7.74-1.86a6.11,6.11,0,0,0,2-5,5.05,5.05,0,0,0-2.09-4.35q-2.08-1.52-6.18-1.52a20.87,20.87,0,0,0-5.57.69,12.32,12.32,0,0,0-3.59,1.56l-7.47,4.85V18.47l17.1-10.62H399.38v-4h23V7.15l-10.46,6.37a13.25,13.25,0,0,1,2-.34q.9-.09,2.49-.09A11.18,11.18,0,0,1,424,15.55,7.92,7.92,0,0,1,426.67,21.82Z"/><path class="cls-1" d="M440.35,3.56V7.18H437v7.64h2.82v3.65H437v9.76a12,12,0,0,0,1.8-.71,6,6,0,0,0,1.55-1.11v4.05a7.16,7.16,0,0,1-2.56,1.14,14.5,14.5,0,0,1-3.68.42h-4V28.53h3.32V18.47h-2.95V14.82h2.95V7.18h-3.32V3.56Zm18.76,0V19.33H452.4v3.29h6.71V26H452.4v3.16h7.51v3.35h-19V29.13h7.67V26h-6.74V22.62h6.74V19.33h-6.74V3.56ZM445.26,10h3.39V6.52h-3.39Zm0,6.38h3.39V13h-3.39Zm7-6.38h3.42V6.52H452.3Zm0,6.38h3.42V13H452.3Z"/><path class="cls-1" d="M481,3V6.65h12.09V32.48H464.92V6.65H477V3ZM468.9,17.74H477V10.37H468.9Zm0,11.06H477V21.49H468.9ZM481,17.74h8.14V10.37H481Zm0,11.06h8.14V21.49H481Z"/><rect class="cls-2" x="87.86" width="27.75" height="4.63"/><path class="cls-2" d="M87.86,13.87H111A13.88,13.88,0,0,1,97.11,27.75v4.62a18.5,18.5,0,0,0,18.5-18.5V9.25H87.86Z"/><path class="cls-2" d="M212.73,0V4.63a9.21,9.21,0,0,1-4.63,8V17.7a13.86,13.86,0,0,0,9.25-13.07h13.87v9.24a13.88,13.88,0,0,1-13.87,13.88v4.62a18.5,18.5,0,0,0,18.5-18.5V0H212.73Z"/><rect class="cls-2" x="242.79" width="2.31" height="4.63"/><rect class="cls-2" x="238.16" width="2.31" height="4.63"/><rect class="cls-2" x="120.24" y="13.87" width="23.12" height="4.62"/><rect class="cls-2" x="143.36" y="27.75" width="27.75" height="4.63"/><rect class="cls-2" x="145.67" width="23.12" height="4.63"/><rect class="cls-2" x="175.73" width="13.87" height="4.63"/><path class="cls-3" d="M4.63,0V4.63a9.23,9.23,0,0,1-4.63,8V17.7A13.86,13.86,0,0,0,9.25,4.63H23.12v9.24A13.88,13.88,0,0,1,9.25,27.75v4.62a18.5,18.5,0,0,0,18.5-18.5V0H4.63Z"/><rect class="cls-3" x="34.68" width="2.31" height="4.63"/><rect class="cls-3" x="30.06" width="2.31" height="4.63"/><rect class="cls-3" x="80.93" width="2.31" height="4.63"/><rect class="cls-3" x="76.3" width="2.31" height="4.63"/><path class="cls-3" d="M55.49,9.25H50.87V18.5a9.25,9.25,0,0,1-9.25,9.25v4.62A13.87,13.87,0,0,0,55.49,18.5Z"/><rect class="cls-3" x="41.62" y="9.25" width="4.63" height="9.25"/><rect class="cls-3" x="32.37" y="9.25" width="4.62" height="9.25"/><path class="cls-3" d="M74,13.87a13.82,13.82,0,0,1-9.25-3.53V0H60.12V32.37h4.62V16A18.46,18.46,0,0,0,74,18.5h9.25V13.87Z"/><path class="cls-2" d="M198.85,13.87h0A13.88,13.88,0,0,1,185,27.75h-9.25v4.62H185a18.5,18.5,0,0,0,18.5-18.5V0h-4.63Z"/><rect class="cls-3" x="249.72" width="4.63" height="23.12"/><rect class="cls-3" x="249.72" y="27.75" width="4.63" height="4.63"/></g></g></svg>