<svg xmlns="http://www.w3.org/2000/svg" viewBox="0 0 301.82 29.85"><defs><style>.cls-1{fill:#231815;}</style></defs><g id="レイヤー_2" data-name="レイヤー 2"><g id="レイヤー_1-2" data-name="レイヤー 1"><path class="cls-1" d="M8,0V2.76h4.51V6.18A16,16,0,0,1,11,10.69a29.42,29.42,0,0,1-2.88,4.68v.93l1.27.83L11.75,13h2.89l-3.18,5.65,2,1.29v4.22L8.13,20.32v9.53H4.38V19.46A18.35,18.35,0,0,1,0,22.58v-5a16.28,16.28,0,0,0,5.71-4.85A14.2,14.2,0,0,0,8.57,6.47H0V2.76H4.22V0ZM29,.53V24.34a5.36,5.36,0,0,1-1.48,4.16,5.71,5.71,0,0,1-4,1.35h-3V26h2.42c1.57,0,2.36-.82,2.36-2.46V4.45H21.25q0,11.63-1.36,16.57a15.42,15.42,0,0,1-6.18,8.83V24.5a12.8,12.8,0,0,0,3.06-6.34q.82-4,.83-13.71H13.71V.53Z"/><path class="cls-1" d="M43.63,0a22.55,22.55,0,0,1-.86,6.24,24.66,24.66,0,0,1-2.46,5.68h.83V29.85H37.39v-14a17.82,17.82,0,0,1-1.6,1.43c-.51.4-1.1.82-1.79,1.26V13.15a11.91,11.91,0,0,0,4-5.21A19.1,19.1,0,0,0,39.64,0ZM63,0V3.88a36.16,36.16,0,0,1-7.14,1.63v7.24h8v3.92h-8V25.6H63v3.85H44.53V25.6H51.7V16.67h-8V12.75h8V5.91c-.84,0-2.1,0-3.77.12s-2.81.11-3.4.11V2.26a92.9,92.9,0,0,0,10.39-.5A39.49,39.49,0,0,0,63,0Z"/><path class="cls-1" d="M74.74,3.05V7L68,4V0Zm.07,9.07V23.57A2.53,2.53,0,0,0,76,25.37a5.8,5.8,0,0,0,2.89.56h19v3.52H78.13a9.24,9.24,0,0,1-3.8-.61,4.4,4.4,0,0,1-2-1.71L68,29.85V25.63l3.09-2v-7.7H68V12.12ZM97.82.53V5.71h-2V7.6H89V9.33h8v9.86H89v1.6h8.84v2.42H89V25H85.3V23.21H76.47V20.79H85.3v-1.6h-8V9.33h8V7.6H78.43V5.71h-2V.53ZM80,5.15H85.3V3.32H80Zm.63,7.93h4.85V11.59H80.58Zm0,3.82h4.85V15.41H80.58Zm8.27-3.82h4.92V11.59H88.85Zm0,3.82h4.92V15.41H88.85ZM89,5.15H94.3V3.32H89Z"/><path class="cls-1" d="M102,2.26h6V0h3.42V2.26H117V5.31H111.4V7.54h5.24V22H111.4V24.3H117v3H111.4v2.52H108V27.33h-6v-3h6V22h-5.42V7.54H108V5.31h-6Zm3.72,10.92H108V10.56h-2.26Zm0,5.75H108V16.24h-2.26Zm5.68-5.75h2.15V10.56H111.4Zm0,5.75h2.15V16.24H111.4Zm6.67-8.27h13.75v3.88H125l-2.22,11.13a12.77,12.77,0,0,0,2.62-.22,9.42,9.42,0,0,0,2.12-.78L126.3,18h3.39l2.13,11.85h-3.39l-.33-1.69a11.58,11.58,0,0,1-3.54,1,56,56,0,0,1-6.49.25V25.73h1l2.32-11.19h-3.32ZM118.83.53H131V4.38H118.83Z"/><path class="cls-1" d="M149.45,0V2.16h8.13V5.64h-8.13V8.77H155a30.61,30.61,0,0,0,6.41-7.71h4.15a36.58,36.58,0,0,1-5.88,7.71h6.18v3.42H155.66a54.25,54.25,0,0,1-4.75,3h13.25V29.45h-25.6V19.69l-2.56.6V16.4a40.4,40.4,0,0,0,13.75-4.21H136V8.77h9.56V5.64H136.8V2.16h8.76V0Zm-7.11,20.92h17.93V18h-15.8l-2.13.69Zm0,5.78h17.93v-3H142.34Z"/><path class="cls-1" d="M182.45.53V4.15H177.7a30,30,0,0,1-.51,3.57,24.73,24.73,0,0,1-1,3.44h5.57V29.45h-9.89V18.16c-.47.51-.83.9-1.1,1.16s-.63.54-.76.67V14.38a13.23,13.23,0,0,0,2.87-4.57,14.88,14.88,0,0,0,1.18-5.66H170V.53Zm-7.27,25.34h3.35V14.74h-3.35ZM199.82.53V4.28h-2v8.5h2v3.69h-2V29.85H194V16.47h-4.32a19.41,19.41,0,0,1-1.58,8.37,10.75,10.75,0,0,1-4.73,5V24.74a6.31,6.31,0,0,0,2-3,16.7,16.7,0,0,0,.68-5.26h-2.29V12.78h2.29V4.28h-2.32V.53ZM189.76,12.78H194V4.28h-4.28Z"/><path class="cls-1" d="M210.51,0a53.73,53.73,0,0,1-.4,7.16,22.24,22.24,0,0,1-1.3,5.19h.87v17.5h-3.49V16.67l-1.06.93c-.4.35-.78.66-1.13.93V13a9.09,9.09,0,0,0,2.14-4.65A42.16,42.16,0,0,0,206.82,0Zm4.18,4.38V29H211.6V4.38ZM224.32,0c-.07.38-.12.75-.17,1.13s-.18.5-.23.63h9.9V5h-1.46a15,15,0,0,1-1.45,3.67,12.64,12.64,0,0,1-2.44,3.07,19.34,19.34,0,0,0,5.35.7v3.25l-.83-.06v2.78A25.53,25.53,0,0,1,226.31,20a78.93,78.93,0,0,1-9.29.47V17.43a87.36,87.36,0,0,0,8.88-.36,23.43,23.43,0,0,0,6.22-1.53,21.53,21.53,0,0,1-3.62-.6,22,22,0,0,1-3.18-1.09,21.71,21.71,0,0,1-4.19,1.56,20.32,20.32,0,0,1-5,.56V12.75a19,19,0,0,0,3-.22,15.14,15.14,0,0,0,2.71-.68,13.85,13.85,0,0,1-3.29-3.62,11.37,11.37,0,0,1-2.46,1V5.45a6.61,6.61,0,0,0,3.07-2A6.45,6.45,0,0,0,220.7,0ZM233,19.89v3.25a22,22,0,0,1-6.45,1.63,82,82,0,0,1-9.52.46V22.08a91,91,0,0,0,9.36-.33A20.81,20.81,0,0,0,233,19.89Zm0,4.95v3.22a29.55,29.55,0,0,1-6.48,1.39,89.15,89.15,0,0,1-9.49.4v-3q4.11,0,6.79-.11a32.38,32.38,0,0,0,4.73-.52A23.84,23.84,0,0,0,233,24.84ZM220.34,7.14h1.36a8.81,8.81,0,0,0,1.42,1.79,10.61,10.61,0,0,0,1.9,1.43A10.07,10.07,0,0,0,227.54,8,11.15,11.15,0,0,0,229,5h-6.68a10.67,10.67,0,0,1-1.23,1.36C221,6.43,220.76,6.7,220.34,7.14Z"/><path class="cls-1" d="M254.93,0V3.19H267v23a3.48,3.48,0,0,1-3.62,3.62h-5.71V26h4.25a1.16,1.16,0,0,0,.78-.27A.93.93,0,0,0,263,25V7.11h-8.1l-.1,1.12a10.64,10.64,0,0,0,1.83,6.08,11.16,11.16,0,0,0,4.71,4v4.35a14,14,0,0,1-5-3.05A17.32,17.32,0,0,1,252.84,15a14.41,14.41,0,0,1-8.43,7.74V18.33a10.41,10.41,0,0,0,4.78-4.24,13.48,13.48,0,0,0,1.66-7h-8.14V29.85H238.8V3.19h12.08V0Z"/><path class="cls-1" d="M284.72,9.56h4.35a10,10,0,0,0,4.61,3.85,19.1,19.1,0,0,0,8.14,1.66v3.82l-1-.06V29.45H273V18.83l-1,.06V15.07a19.14,19.14,0,0,0,8.1-1.66A9.84,9.84,0,0,0,284.72,9.56ZM288.9,0V1.53h12.68V8.27H297.9V4.78H276V8.3h-3.72V1.53h12.69V0Zm-4.65,6.51A13,13,0,0,1,280,10.59a17.16,17.16,0,0,1-7.2,2.09v-3a10.8,10.8,0,0,0,4.78-1,6.53,6.53,0,0,0,2.55-2.16Zm-9.36,12.15h24a22.82,22.82,0,0,1-6.91-2,15.29,15.29,0,0,1-5.11-3.88,15.66,15.66,0,0,1-5.15,3.88A22.82,22.82,0,0,1,274.89,18.66Zm2,7.57H297V21.88H276.85Zm16.8-19.72a6.49,6.49,0,0,0,2.56,2.16,10.74,10.74,0,0,0,4.78,1v3a17.09,17.09,0,0,1-7.18-2.06,13,13,0,0,1-4.25-4.11Z"/></g></g></svg>