<svg xmlns="http://www.w3.org/2000/svg" viewBox="0 0 429.03 32.88"><defs><style>.cls-1{fill:#231815;}.cls-2{fill:#898989;}.cls-3{fill:#2a7c61;}</style></defs><g id="レイヤー_2" data-name="レイヤー 2"><g id="レイヤー_1-2" data-name="レイヤー 1"><path class="cls-1" d="M296,3V6.42l-2.33.3-1.56,5H296v7.11h-3.06v2.88a21.87,21.87,0,0,1-2.95,3.61,21.06,21.06,0,0,1-4,3.07,51.41,51.41,0,0,0,10,.93v3.55a52.71,52.71,0,0,1-8-.56,37.68,37.68,0,0,1-6.79-1.7,40.69,40.69,0,0,1-6.87,1.66,52.26,52.26,0,0,1-8.17.6V29.26c2,0,3.79-.08,5.45-.23a46.53,46.53,0,0,0,4.78-.7A28.37,28.37,0,0,1,270.18,23h5.28a9.6,9.6,0,0,0,2.39,2.12,21.13,21.13,0,0,0,3.22,1.73,20.26,20.26,0,0,0,3.8-2.18,21.27,21.27,0,0,0,3.18-2.84H269.19v-3h-3.06V11.73h3.69a16.94,16.94,0,0,0-1.26-4.08h-2.43V4.13q9,0,13,0t8.55-.3Q292.2,3.53,296,3Zm-26,15.57h22.24V15.22H269.92Zm3.88-6.87h5a24.07,24.07,0,0,0-1.33-4.18l-4.92.06A25.46,25.46,0,0,1,273.8,11.73Zm9,0h5l1.43-4.65c-.55,0-2.07.08-4.55.23-1.39.09-2.42.14-3.09.14a17.9,17.9,0,0,1,.75,2.09A14,14,0,0,1,282.83,11.73Z"/><path class="cls-1" d="M310.82,8.18v3.35H300.13V8.18Zm-.66-4.62V6.45h-9.43V3.56Zm0,9.66v2.83h-9.43V13.22Zm0,4.59v2.85h-9.43V17.81Zm0,4.55V32.48h-9.43V22.36Zm-6.28,7.23h3.32V25.34h-3.32ZM318.19,3V4.29h5.08V3h3.56V4.29H330V6.92h-3.12V8.68h2.32v2.59h-2.32V13H330v2.69h-7.47v1.46h6.67v8.67h.8v2.65h-.8v1.06a3.41,3.41,0,0,1-.9,2.43,3.13,3.13,0,0,1-2.42,1h-4.48V30h3.32a1.05,1.05,0,0,0,.73-.32.92.92,0,0,0,.33-.68v-.53h-10v4.45h-3.39V28.43h-.83V25.78h.83V17.11H319V15.65h-7.47V13h3.06V11.27h-2.19V8.68h2.19V6.92h-3.06V4.29h3.06V3Zm-2.42,18.46H319V19.7h-3.25Zm0,4.29H319v-1.7h-3.25Zm2.42-17.1h5.08V6.92h-5.08Zm0,4.28h5.08V11.27h-5.08Zm4.29,8.53h3.25V19.7h-3.25Zm0,4.29h3.25v-1.7h-3.25Z"/><path class="cls-1" d="M362.69,18q0,7.36-3.49,11.09-3.29,3.48-9.13,3.48V28.23q4.28,0,6.36-2.55t2.07-7.81a11.21,11.21,0,0,0-2.35-7.53c-1.73-2-4.23-3-7.51-3q-5.81,0-8.66,3.45c-1.73,2.13-2.59,5.1-2.59,8.93a10.35,10.35,0,0,0,1.11,5.2,3.27,3.27,0,0,0,2.84,1.91q2,0,3.55-5a43.71,43.71,0,0,0,1.56-12.77h4.08q0,9.74-2.49,15.94-2.58,6.48-6.9,6.48a6.53,6.53,0,0,1-5.65-3.16q-2.12-3.15-2.12-8.6,0-7.31,3.62-11.62,4-4.78,11.85-4.78,6.65,0,10.33,4.08Q362.68,11.34,362.69,18Z"/><path class="cls-1" d="M373.51,5.69V9.54l-7.37-2.66V3Zm0,8v3.95l-7.37-2.56V11.13ZM370.42,20h3.75A14.87,14.87,0,0,1,372,27.82a12.06,12.06,0,0,1-5.89,5.06V28.23a7.75,7.75,0,0,0,3-3.09A10.3,10.3,0,0,0,370.42,20Zm9.86-1.12v4.71A11,11,0,0,1,379,29a8.54,8.54,0,0,1-4.68,3.88V28.73a4.74,4.74,0,0,0,2-2.09,7.66,7.66,0,0,0,.59-3.22V18.84ZM387.39,3V5.16H396V8.54H383.57l-1.86,5.05c2.53,0,4.4-.06,5.63-.17a14.41,14.41,0,0,0,3.54-.76l-.8-2.59h3.55L396,17.54h-3.62l-.5-1.83a18.92,18.92,0,0,1-5.31,1.13q-3.09.27-11.06.27V13.59h2.09l1.83-5.05h-4.48V5.16h8.23V3Zm-1.06,15.81V32.71h-3.42V18.84Zm6,0V28.1a.86.86,0,0,0,1,1h.73a3,3,0,0,0,1.9-.56V32a4.62,4.62,0,0,1-2.23.53h-1.46Q389,32.48,389,29V18.84Z"/><path class="cls-1" d="M429,31.92h-4a5,5,0,0,1-3.59-1.13c-.84-.84-1.26-2.25-1.26-4.22,0-1.59.16-3.88.48-6.85s.48-5.1.48-6.36a5.31,5.31,0,0,0-.6-2.87,2.2,2.2,0,0,0-2-.92,6.93,6.93,0,0,0-4.07,1.78,42.69,42.69,0,0,0-5.86,6.12v15h-4.11v-10l-3,3.56c-1,1.19-1.68,2-2.05,2.51V22.69q.56-.84,2.75-3.46c.78-.88,1.55-1.78,2.33-2.68V11h-4.85V6.75h4.85V3.36h4.11V11.7a28.5,28.5,0,0,1,6-5.28,10.23,10.23,0,0,1,5.28-1.6,5.11,5.11,0,0,1,4.29,1.9,7.92,7.92,0,0,1,1.36,4.88,51.48,51.48,0,0,1-.34,5.41c-.5,4.63-.76,7.34-.76,8.13a2.93,2.93,0,0,0,.42,1.85,1.67,1.67,0,0,0,1.34.48H429Z"/><rect class="cls-2" x="87.86" width="27.75" height="4.63"/><path class="cls-2" d="M87.86,13.87H111A13.88,13.88,0,0,1,97.11,27.75v4.62a18.5,18.5,0,0,0,18.5-18.5V9.25H87.86Z"/><path class="cls-2" d="M212.73,0V4.63a9.21,9.21,0,0,1-4.63,8V17.7a13.86,13.86,0,0,0,9.25-13.07h13.87v9.24a13.88,13.88,0,0,1-13.87,13.88v4.62a18.5,18.5,0,0,0,18.5-18.5V0H212.73Z"/><rect class="cls-2" x="242.79" width="2.31" height="4.63"/><rect class="cls-2" x="238.16" width="2.31" height="4.63"/><rect class="cls-2" x="120.24" y="13.87" width="23.12" height="4.62"/><rect class="cls-2" x="143.36" y="27.75" width="27.75" height="4.63"/><rect class="cls-2" x="145.67" width="23.12" height="4.63"/><rect class="cls-2" x="175.73" width="13.87" height="4.63"/><path class="cls-3" d="M4.63,0V4.63a9.23,9.23,0,0,1-4.63,8V17.7A13.86,13.86,0,0,0,9.25,4.63H23.12v9.24A13.88,13.88,0,0,1,9.25,27.75v4.62a18.5,18.5,0,0,0,18.5-18.5V0H4.63Z"/><rect class="cls-3" x="34.68" width="2.31" height="4.63"/><rect class="cls-3" x="30.06" width="2.31" height="4.63"/><rect class="cls-3" x="80.93" width="2.31" height="4.63"/><rect class="cls-3" x="76.3" width="2.31" height="4.63"/><path class="cls-3" d="M55.49,9.25H50.87V18.5a9.25,9.25,0,0,1-9.25,9.25v4.62A13.87,13.87,0,0,0,55.49,18.5Z"/><rect class="cls-3" x="41.62" y="9.25" width="4.63" height="9.25"/><rect class="cls-3" x="32.37" y="9.25" width="4.62" height="9.25"/><path class="cls-3" d="M74,13.87a13.82,13.82,0,0,1-9.25-3.53V0H60.12V32.37h4.62V16A18.46,18.46,0,0,0,74,18.5h9.25V13.87Z"/><path class="cls-2" d="M198.85,13.87h0A13.88,13.88,0,0,1,185,27.75h-9.25v4.62H185a18.5,18.5,0,0,0,18.5-18.5V0h-4.63Z"/><rect class="cls-3" x="249.72" width="4.63" height="23.12"/><rect class="cls-3" x="249.72" y="27.75" width="4.63" height="4.63"/></g></g></svg>