<svg xmlns="http://www.w3.org/2000/svg" viewBox="0 0 569.19 93.27"><defs><style>.cls-1{fill:#2a7c61;}.cls-2{fill:#898989;}.cls-3{fill:#231815;}</style></defs><g id="レイヤー_2" data-name="レイヤー 2"><g id="レイヤー_1-2" data-name="レイヤー 1"><path class="cls-1" d="M289,19.05q0,6.51-3.08,9.78c-1.93,2.06-4.62,3.08-8.06,3.08V28.07q3.78,0,5.61-2.25c1.22-1.51,1.83-3.8,1.83-6.89a9.88,9.88,0,0,0-2.08-6.65,8.27,8.27,0,0,0-6.62-2.64q-5.11,0-7.64,3c-1.53,1.88-2.29,4.5-2.29,7.88a9.18,9.18,0,0,0,1,4.59,2.89,2.89,0,0,0,2.51,1.68q1.75,0,3.13-4.41a38.43,38.43,0,0,0,1.38-11.26h3.6q0,8.58-2.19,14.06-2.3,5.72-6.1,5.71a5.73,5.73,0,0,1-5-2.78,13.4,13.4,0,0,1-1.87-7.59q0-6.43,3.19-10.25,3.54-4.22,10.46-4.22,5.87,0,9.11,3.6T289,19.05Z"/><path class="cls-1" d="M300.83,1.07V4h4.78V7.61a17.07,17.07,0,0,1-1.56,4.78,32.06,32.06,0,0,1-3,4.95v1l1.33.88,2.5-4.4h3.06l-3.38,6,2.11,1.37v4.47L301,22.58V32.67h-4v-11a19.17,19.17,0,0,1-4.64,3.3V19.7a17.39,17.39,0,0,0,6.05-5.13,15,15,0,0,0,3-6.65h-9.07V4h4.47V1.07Zm22.25.56V26.84a5.69,5.69,0,0,1-1.56,4.41,6.06,6.06,0,0,1-4.24,1.42h-3.16V28.59h2.57c1.66,0,2.49-.86,2.49-2.6V5.78h-4.29q0,12.3-1.44,17.54a16.34,16.34,0,0,1-6.54,9.35V27a13.6,13.6,0,0,0,3.24-6.71c.58-2.82.87-7.65.87-14.52h-4.11V1.63Z"/><path class="cls-1" d="M338.59,1.07a23.72,23.72,0,0,1-.92,6.61,25.6,25.6,0,0,1-2.6,6H336v19h-4V17.8a18.29,18.29,0,0,1-1.69,1.51c-.54.42-1.17.87-1.9,1.34V15a12.63,12.63,0,0,0,4.27-5.52,20.21,20.21,0,0,0,1.71-8.4Zm20.49,0V5.18a37.71,37.71,0,0,1-7.56,1.72v7.67H360v4.15h-8.44v9.45h7.56v4.08H339.54V28.17h7.59V18.72h-8.44V14.57h8.44V7.32c-.89,0-2.22,0-4,.13s-3,.12-3.6.12V3.46a98.17,98.17,0,0,0,11-.53A41.5,41.5,0,0,0,359.08,1.07Z"/><path class="cls-1" d="M371.53,4.3V8.52l-7.17-3.27V1.1Zm.07,9.6V26a2.67,2.67,0,0,0,1.23,1.9,6.08,6.08,0,0,0,3.06.59H396v3.73H375.11a9.88,9.88,0,0,1-4-.65A4.66,4.66,0,0,1,369,29.79l-4.61,2.88V28.21l3.27-2.11V17.94h-3.27v-4ZM396,1.63V7.11h-2.11v2h-7.24V11h8.47V21.39h-8.47v1.68H396v2.57h-9.35v1.93h-3.9V25.64h-9.35V23.07h9.35V21.39h-8.44V11h8.44V9.12h-7.28v-2h-2.07V1.63ZM377.05,6.52h5.66V4.58h-5.66Zm.67,8.4h5.13V13.34h-5.13Zm0,4h5.13V17.38h-5.13Zm8.75-4h5.2V13.34h-5.2Zm0,4h5.2V17.38h-5.2Zm.14-12.44h5.63V4.58h-5.63Z"/><path class="cls-1" d="M400.39,3.46h6.33V1.07h3.62V3.46h6V6.69h-6V9.05h5.56V24.31h-5.56V26.8h6V30h-6v2.67h-3.62V30h-6.33V26.8h6.33V24.31H401V9.05h5.73V6.69h-6.33ZM404.33,15h2.39V12.25h-2.39Zm0,6.09h2.39V18.26h-2.39Zm6-6.09h2.29V12.25h-2.29Zm0,6.09h2.29V18.26h-2.29Zm7.07-8.76H432v4.12h-7.2L422.4,28.24a12.81,12.81,0,0,0,2.78-.23,10.21,10.21,0,0,0,2.25-.82l-1.3-7.07h3.58L432,32.67h-3.58L428,30.88A12.54,12.54,0,0,1,424.28,32a61.94,61.94,0,0,1-6.87.26V28.31h1l2.46-11.84h-3.51Zm.81-10.72h12.86V5.71H418.22Z"/><path class="cls-1" d="M450.63,1.07V3.35h8.61V7h-8.61v3.31h5.84a32.21,32.21,0,0,0,6.78-8.16h4.4a38.75,38.75,0,0,1-6.23,8.16H468V14H457.2a57.47,57.47,0,0,1-5,3.2h14V32.25H439.1V21.91l-2.71.64V18.43A42.67,42.67,0,0,0,451,14H436.39V10.35h10.13V7h-9.28V3.35h9.28V1.07Zm-7.52,22.15h19v-3.1H445.36l-2.25.74Zm0,6.11h19V26.2h-19Z"/><path class="cls-1" d="M485.58,1.63V5.46h-5A30.88,30.88,0,0,1,480,9.24a25.31,25.31,0,0,1-1.07,3.64h5.91V32.25H474.36V20.3c-.49.54-.88.95-1.16,1.23s-.67.56-.81.7V16.29a14,14,0,0,0,3-4.83,15.78,15.78,0,0,0,1.25-6h-4.29V1.63Zm-7.7,26.82h3.55V16.68h-3.55ZM504,1.63v4h-2.14v9H504v3.9h-2.14V32.67h-4V18.5h-4.58a20.51,20.51,0,0,1-1.67,8.86,11.36,11.36,0,0,1-5,5.31V27.26a6.8,6.8,0,0,0,2.09-3.18,17.66,17.66,0,0,0,.72-5.58H487V14.6h2.43v-9H487v-4Zm-10.65,13h4.54v-9h-4.54Z"/><path class="cls-1" d="M515.28,1.07a57.78,57.78,0,0,1-.42,7.57,23.4,23.4,0,0,1-1.37,5.5h.91V32.67h-3.69v-14l-1.12,1c-.42.37-.82.7-1.2,1V14.85a9.57,9.57,0,0,0,2.27-4.92,44.38,44.38,0,0,0,.72-8.86Zm4.43,4.64V31.76h-3.27v-26Zm10.2-4.64c-.07.4-.13.79-.18,1.19s-.2.53-.24.67H540V6.34h-1.54a16,16,0,0,1-1.53,3.88,13.52,13.52,0,0,1-2.59,3.26,20.78,20.78,0,0,0,5.66.74v3.44l-.88-.07v2.95A27.13,27.13,0,0,1,532,22.27a85.74,85.74,0,0,1-9.85.49V19.52a90.93,90.93,0,0,0,9.41-.38,24.48,24.48,0,0,0,6.59-1.62,23.73,23.73,0,0,1-3.83-.63A23.61,23.61,0,0,1,531,15.73a22.4,22.4,0,0,1-4.43,1.65,21,21,0,0,1-5.27.6V14.57a21.29,21.29,0,0,0,3.22-.23,16,16,0,0,0,2.86-.72,15.29,15.29,0,0,1-3.48-3.83,13,13,0,0,1-2.6,1.09V6.83a7,7,0,0,0,3.25-2.12,6.81,6.81,0,0,0,1.57-3.64Zm9.17,21.06v3.44a23,23,0,0,1-6.82,1.72,86.25,86.25,0,0,1-10.09.5V24.45a93.69,93.69,0,0,0,9.92-.36A21.85,21.85,0,0,0,539.08,22.13Zm0,5.23v3.41a30.67,30.67,0,0,1-6.85,1.48,96.37,96.37,0,0,1-10.06.42V29.51q4.37,0,7.19-.12a35.65,35.65,0,0,0,5-.55A23.6,23.6,0,0,0,539.08,27.36ZM525.69,8.63h1.44a9.22,9.22,0,0,0,1.51,1.89,11,11,0,0,0,2,1.52,10.77,10.77,0,0,0,2.67-2.54,11.67,11.67,0,0,0,1.58-3.16h-7.07a10.36,10.36,0,0,1-1.3,1.44C526.42,7.88,526.13,8.16,525.69,8.63Z"/><path class="cls-1" d="M548.71,6.22c-.39,2.34-.68,4.62-.88,6.82s-.29,4.51-.29,6.89c0,1.8.08,3.66.23,5.58s.36,4,.62,6.14h-3.61c-.23-1.88-.43-3.88-.58-6s-.24-4-.24-5.65c0-2.42.1-4.79.28-7.11s.46-4.53.81-6.66Zm20.48,20.42a30.44,30.44,0,0,0-2.81-1.7,6.28,6.28,0,0,1-2.17,5.12c-1.45,1.2-3.59,1.79-6.42,1.79a7.92,7.92,0,0,1-5.39-1.65,5.84,5.84,0,0,1-1.87-4.62,5.74,5.74,0,0,1,1.73-4.39,7.91,7.91,0,0,1,5.68-1.85,19.05,19.05,0,0,1,2.39.15,22.89,22.89,0,0,1,2.44.44V12.84H551.08V9.26h11.69v-3h3.64v3h2.78v3.58h-2.78V21c.48.2,1,.4,1.45.62s.92.44,1.33.67Zm-6.39-2.79V23.5c-.88-.25-1.73-.45-2.56-.6a14.61,14.61,0,0,0-2.42-.22,5.07,5.07,0,0,0-2.81.71,2.39,2.39,0,0,0-1.08,2.16,2.31,2.31,0,0,0,1,2.05,4.86,4.86,0,0,0,2.82.71,5.5,5.5,0,0,0,4-1.2A4.47,4.47,0,0,0,562.8,23.85Z"/><rect class="cls-2" x="87.86" width="27.75" height="4.63"/><path class="cls-2" d="M87.86,13.87H111A13.88,13.88,0,0,1,97.11,27.75v4.62a18.5,18.5,0,0,0,18.5-18.5V9.25H87.86Z"/><path class="cls-2" d="M212.73,0V4.63a9.21,9.21,0,0,1-4.63,8V17.7a13.86,13.86,0,0,0,9.25-13.07h13.87v9.24a13.88,13.88,0,0,1-13.87,13.88v4.62a18.5,18.5,0,0,0,18.5-18.5V0H212.73Z"/><rect class="cls-2" x="242.79" width="2.31" height="4.63"/><rect class="cls-2" x="238.16" width="2.31" height="4.63"/><rect class="cls-2" x="120.24" y="13.87" width="23.12" height="4.62"/><rect class="cls-2" x="143.36" y="27.75" width="27.75" height="4.63"/><rect class="cls-2" x="145.67" width="23.12" height="4.63"/><rect class="cls-2" x="175.73" width="13.87" height="4.63"/><path class="cls-1" d="M4.63,0V4.63a9.23,9.23,0,0,1-4.63,8V17.7A13.86,13.86,0,0,0,9.25,4.63H23.12v9.24A13.88,13.88,0,0,1,9.25,27.75v4.62a18.5,18.5,0,0,0,18.5-18.5V0H4.63Z"/><rect class="cls-1" x="34.68" width="2.31" height="4.63"/><rect class="cls-1" x="30.06" width="2.31" height="4.63"/><rect class="cls-1" x="80.93" width="2.31" height="4.63"/><rect class="cls-1" x="76.3" width="2.31" height="4.63"/><path class="cls-1" d="M55.49,9.25H50.87V18.5a9.25,9.25,0,0,1-9.25,9.25v4.62A13.87,13.87,0,0,0,55.49,18.5Z"/><rect class="cls-1" x="41.62" y="9.25" width="4.63" height="9.25"/><rect class="cls-1" x="32.37" y="9.25" width="4.62" height="9.25"/><path class="cls-1" d="M74,13.87a13.82,13.82,0,0,1-9.25-3.53V0H60.12V32.37h4.62V16A18.46,18.46,0,0,0,74,18.5h9.25V13.87Z"/><path class="cls-2" d="M198.85,13.87h0A13.88,13.88,0,0,1,185,27.75h-9.25v4.62H185a18.5,18.5,0,0,0,18.5-18.5V0h-4.63Z"/><rect class="cls-1" x="249.72" width="4.63" height="23.12"/><rect class="cls-1" x="249.72" y="27.75" width="4.63" height="4.63"/><path class="cls-3" d="M44.92,62.22H38.73V92.6h-6.1V62.22H27.79a41,41,0,0,1-8.54,18.52Q11.95,89.91,2.89,92.6V85.93q6.51-2.27,11.94-9.1a31.56,31.56,0,0,0,6.72-14.61H2.89V56.08H32.63V50.66h6.1v5.42h6.19Z"/><path class="cls-3" d="M90.83,63.62a42.86,42.86,0,0,1-1.68,12.95,21.06,21.06,0,0,1-8,11.23q-6.81,4.78-18.57,4.8H49.81V86.5h13q8.84,0,14-3.36a15.64,15.64,0,0,0,6.34-8.35,32.73,32.73,0,0,0,1.53-10.74V53.59h6.14ZM72,63.71a56.88,56.88,0,0,0-10.5-3.55,47.29,47.29,0,0,0-11.09-1.49V52.48A55.62,55.62,0,0,1,62.14,53.9,41.26,41.26,0,0,1,72,57.09Z"/><path class="cls-3" d="M138.14,71.87q0,9.88-6.67,15.06-7.2,5.52-21.59,5.52H99.8v-6h9.94q11.37,0,16.48-3.31t5.11-10.75V70.76H96.69v-6h41.45Zm-1-13.29H97.84V52.44h39.29Z"/><path class="cls-3" d="M185.5,50.85a17.9,17.9,0,0,1-3.79,11.66A22.48,22.48,0,0,1,172,69V92.55h-6.15V70.72L144,75.66V69.32l20.39-4.46a26.53,26.53,0,0,0,10.32-4.36,11.7,11.7,0,0,0,4.6-9.65Z"/><path class="cls-3" d="M231.41,63.62a42.86,42.86,0,0,1-1.68,12.95,21.06,21.06,0,0,1-8,11.23Q215,92.59,203.2,92.6H190.39V86.5h13q8.84,0,14-3.36a15.59,15.59,0,0,0,6.34-8.35,32.73,32.73,0,0,0,1.53-10.74V53.59h6.14Zm-18.81.09a56.88,56.88,0,0,0-10.5-3.55A47.29,47.29,0,0,0,191,58.67V52.48a55.62,55.62,0,0,1,11.71,1.42,41.26,41.26,0,0,1,9.88,3.19Z"/><path class="cls-3" d="M261.16,50.9v4.75h-3.65V61h3.65v4.66h-3.65V76.09h4.75V79.4h17.47V84H262.26v4.51h18.67v4.22H237.84V88.47h18.67V84H239V79.4h17.52V76.28h-4.18V65.68h-5.66a16.16,16.16,0,0,1-2.49,7.53,11.06,11.06,0,0,1-6.34,4.61V72.4A5.26,5.26,0,0,0,240.38,70a11.46,11.46,0,0,0,1.11-4.29h-3.65V61h3.74V55.65h-3.74V50.9ZM246.77,61h5.56V55.65h-5.56ZM268.65,50.9v20h-5v-20Zm11.08-.77V70.81a5.27,5.27,0,0,1-1.42,4.06,5.64,5.64,0,0,1-4,1.32h-6.1V71.58h4.85a1.51,1.51,0,0,0,1.68-1.73V50.13Z"/><path class="cls-3" d="M296.23,50.13a17.55,17.55,0,0,1,.94,2.52c.33,1.11.6,2.15.79,3.14h7.58a20.62,20.62,0,0,0-.72-3,14.34,14.34,0,0,0-1.1-2.62h5.61a13.26,13.26,0,0,1,1.06,2.52,20.19,20.19,0,0,1,.72,3.14h7.48l2.21-5.66h5.9l-2.11,5.66h5.47V66.25h-5.42V60.93H292.39v5.32H287V55.79h5.38a18.47,18.47,0,0,0-.65-3,12.79,12.79,0,0,0-1.13-2.64Zm26.39,14.49v4.7a17.76,17.76,0,0,1-4.48,3.32A27,27,0,0,1,312,75.27v1.2h18.09v5.28H312v6a5.55,5.55,0,0,1-1.44,4,5.29,5.29,0,0,1-4,1.49H297V87.89h7.44q1.68,0,1.68-1.53V81.75H287V76.47h19.15v-3a18.09,18.09,0,0,0,4.22-1.32,29.9,29.9,0,0,0,4.22-2.38H294.41V64.62Z"/><path class="cls-3" d="M355.82,50.9V66c0,2.4-.88,4-2.64,4.7h5.33l-1.25,2.93h20.06V92.69H337.93V73.6h13.24L352.32,71a7.14,7.14,0,0,1-1.73.19h-4.32V67.79a30.86,30.86,0,0,1-4.46,1.82,21.11,21.11,0,0,1-4.51,1.06V66.45a22.8,22.8,0,0,0,5.59-1.32,16.57,16.57,0,0,0,5-2.76v4.08h1.63c.93,0,1.39-.5,1.39-1.49v-9.5H336.1V50.9Zm-7.91,7.25v3.79L337.3,60.26V56.32Zm-4.27,23h28V77.82h-28Zm0,7.43h28V85.3h-28ZM378,50.9V66q0,5.18-5.28,5.18h-4.22V67.79a31,31,0,0,1-4.56,1.85,22.33,22.33,0,0,1-4.46,1V66.45a20.56,20.56,0,0,0,5.37-1.3A17.87,17.87,0,0,0,370,62.37v4.08h1.54a1.62,1.62,0,0,0,1.15-.41,1.4,1.4,0,0,0,.43-1.08v-9.5H358.22V50.9Zm-8,7.25v3.79l-10.55-1.68V56.32Z"/><path class="cls-3" d="M425.73,61.94a46.31,46.31,0,0,1-2.11,15.11,21.55,21.55,0,0,1-8.4,11.18q-6.62,4.36-17.66,4.37h-12.9V86.45h13.86q8.5,0,13.34-3.45A16.57,16.57,0,0,0,418,74a43.06,43.06,0,0,0,1.54-12.53V57.67h6.19ZM406,58.29H385.33V52.63H406ZM406,72H385.33V66.4H406Z"/><path class="cls-3" d="M472.65,93.22,458.21,81.66a44.06,44.06,0,0,1-12.57,7.77,39.91,39.91,0,0,1-15,3v-6a48.17,48.17,0,0,0,14.83-3.88,31,31,0,0,0,12-9.12,23.42,23.42,0,0,0,4.94-14.78H432.06V52.53h36.8V59.2a27,27,0,0,1-1.63,9.52,31.91,31.91,0,0,1-4.7,8.38l10.12,8.25Z"/><path class="cls-3" d="M519.53,72.2h-9.88v2.26q0,8.4-5.28,13.1-5.72,5.09-16.65,5.08h-8.21v-6h8.21q8,0,11.66-3.07T503,74.46V72.2H477.55V66.35h42Zm-.82-13.62h-40.3v-5.9h40.3Z"/><path class="cls-3" d="M566.69,92.83H560.6l-.86-4.46a30.15,30.15,0,0,1-8,2.45,59.45,59.45,0,0,1-9.67.72H524.42V85.69A141.15,141.15,0,0,0,530,68.39a132.29,132.29,0,0,0,3.55-17.3h6.19A165,165,0,0,1,536,68.7a153.62,153.62,0,0,1-5.28,16.75h11.61a54.1,54.1,0,0,0,8.88-.65,30.1,30.1,0,0,0,7.34-2.23L553.59,58h6.1Z"/></g></g></svg>